<svg width="221" height="173" viewBox="0 0 221 173" fill="none" xmlns="http://www.w3.org/2000/svg">
<path d="M22.4663 108.873C22.7105 109.523 22.7105 110.304 22.7105 110.954C22.7105 112.385 22.4663 113.426 21.8558 113.946C21.2453 114.596 20.5127 114.856 19.5359 114.856H8.91324V120.97H20.1464C20.3906 121.36 20.6348 121.88 20.879 122.531C21.1232 123.181 21.1232 123.832 21.1232 124.612C21.1232 126.043 20.879 126.953 20.2685 127.604C19.658 128.254 18.9254 128.514 17.9486 128.514H8.91324V139.961C8.54695 140.091 7.93642 140.221 7.20382 140.351C6.34913 140.481 5.61657 140.481 4.88398 140.481C4.15138 140.481 3.41877 140.481 2.80827 140.351C2.19778 140.221 1.70936 139.961 1.34306 139.701C0.976766 139.311 0.610482 138.92 0.366283 138.4C0.122085 137.88 0 137.099 0 136.059V112.385C0 110.824 0.366298 109.653 1.22099 108.743C2.07569 107.832 3.17457 107.442 4.63976 107.442H21.6116C21.9779 107.702 22.2221 108.223 22.4663 108.873ZM34.0657 105.101C33.6994 104.711 33.2111 104.58 32.6006 104.45C31.9901 104.32 31.3796 104.32 30.5249 104.32C29.7923 104.32 29.0597 104.32 28.3271 104.45C27.5945 104.58 26.984 104.711 26.6177 104.711V136.319C26.6177 137.229 26.7397 138.01 26.9839 138.53C27.2281 139.05 27.4723 139.571 27.9607 139.831C28.4491 140.091 28.8154 140.351 29.4259 140.481C30.0364 140.611 30.6469 140.611 31.5016 140.611C32.3563 140.611 32.9668 140.611 33.6994 140.481C34.432 140.351 35.0425 140.221 35.4088 140.221V108.613C35.4088 107.702 35.2868 106.922 35.0426 106.401C34.7984 105.881 34.432 105.491 34.0657 105.101ZM63.7359 119.929C64.3464 121.36 64.5906 122.921 64.5906 124.612C64.5906 125.783 64.2243 126.823 63.6138 127.474C63.0033 128.124 62.0265 128.514 60.9276 128.774L48.3514 130.726C48.7176 131.896 49.4503 132.807 50.6713 133.457C51.7702 134.108 53.1132 134.368 54.7005 134.368C56.0436 134.368 57.3867 134.238 58.6077 133.847C59.8287 133.457 60.8055 133.067 61.6602 132.547C62.1486 132.937 62.637 133.457 63.0033 134.108C63.3696 134.758 63.6138 135.408 63.6138 136.189C63.6138 137.88 62.8812 139.05 61.416 139.831C60.3171 140.481 59.0961 140.871 57.753 141.132C56.4099 141.392 55.0669 141.522 53.968 141.522C52.0144 141.522 50.0607 141.262 48.3514 140.611C46.642 139.961 45.1768 139.05 43.8337 137.88C42.4906 136.709 41.5138 135.148 40.7812 133.327C40.0486 131.506 39.6823 129.425 39.6823 126.953C39.6823 124.612 40.0486 122.531 40.7812 120.71C41.5138 119.019 42.4906 117.588 43.7116 116.417C44.9326 115.247 46.2757 114.466 47.7409 113.946C49.3281 113.426 50.7934 113.165 52.5028 113.165C54.3343 113.165 55.9215 113.426 57.3867 114.076C58.8519 114.596 60.195 115.507 61.1718 116.417C62.3928 117.328 63.1254 118.498 63.7359 119.929ZM56.532 123.051C56.4099 122.271 56.0436 121.62 55.4331 120.84C54.8226 120.059 53.8458 119.799 52.6248 119.799C51.7701 119.799 51.1596 119.929 50.5491 120.189C49.9386 120.45 49.4503 120.84 49.084 121.36C48.7177 121.75 48.4735 122.271 48.2293 122.921C47.9851 123.441 47.9851 124.092 47.863 124.612L56.532 123.051ZM91.6967 136.449L84.9812 127.083L88.4 123.051C88.8884 122.401 89.3768 121.75 89.7431 121.23C90.1094 120.71 90.4757 120.32 90.7199 119.929C90.9641 119.539 91.0862 119.149 91.2083 118.759C91.3304 118.368 91.3304 117.978 91.3304 117.458C91.3304 116.287 90.842 115.247 89.7431 114.596C88.6442 113.946 87.179 113.556 85.3475 113.556L79.853 121.49L76.5564 116.938C75.8238 115.897 75.0912 115.117 74.4807 114.466C73.8702 113.946 73.0154 113.556 71.9165 113.556C70.6955 113.556 69.7188 113.946 68.9862 114.856C68.1315 115.767 67.6431 116.808 67.3989 118.238L74.2364 126.823L70.2072 131.896C69.2304 133.067 68.6199 133.977 68.1315 134.628C67.7652 135.278 67.521 136.059 67.521 136.969C67.521 138.14 68.0093 139.05 68.864 139.831C69.7187 140.611 71.0618 141.002 72.7712 141.002C72.8933 141.002 73.1376 141.002 73.2597 141.002C73.5039 141.002 73.626 141.002 73.8702 141.002L79.1204 132.937L81.9287 137.099C82.6613 138.14 83.3939 139.05 84.1265 139.831C84.8591 140.611 85.958 141.002 87.179 141.002C88.4 141.002 89.3768 140.611 90.2314 139.831C91.0861 139.05 91.4525 137.88 91.6967 136.449ZM97.6796 138.27C96.2144 137.099 95.4818 135.668 95.4818 133.977V104.971C95.8481 104.841 96.3365 104.711 97.0691 104.58C97.8017 104.45 98.5342 104.45 99.3889 104.45C100.122 104.45 100.854 104.45 101.465 104.58C102.075 104.711 102.564 104.971 102.93 105.231C103.296 105.621 103.662 106.011 103.907 106.532C104.151 107.052 104.273 107.832 104.273 108.743V114.076C105.128 113.686 105.982 113.426 106.715 113.296C107.447 113.165 108.302 113.035 109.279 113.035C110.866 113.035 112.454 113.296 113.919 113.946C115.384 114.596 116.727 115.507 117.826 116.677C118.925 117.848 119.78 119.279 120.512 121.1C121.245 122.921 121.489 124.872 121.489 127.083C121.489 129.425 121.123 131.506 120.512 133.327C119.902 135.148 118.925 136.579 117.704 137.75C116.483 138.92 115.018 139.831 113.308 140.351C111.599 141.002 109.645 141.262 107.57 141.262C105.372 141.262 103.418 141.002 101.831 140.481C100.122 139.831 98.7785 139.05 97.6796 138.27ZM104.029 133.067C104.395 133.327 104.883 133.587 105.372 133.717C105.86 133.847 106.593 133.977 107.325 133.977C108.913 133.977 110.134 133.457 110.988 132.286C111.843 131.116 112.331 129.425 112.331 127.214C112.331 124.872 111.843 123.181 110.988 122.141C110.134 120.97 108.913 120.45 107.448 120.45C106.715 120.45 106.226 120.58 105.738 120.71C105.25 120.84 104.761 121.1 104.151 121.36V133.067H104.029ZM148.473 119.929C149.083 121.36 149.328 122.921 149.328 124.612C149.328 125.783 148.961 126.823 148.351 127.474C147.74 128.124 146.764 128.514 145.665 128.774L133.088 130.726C133.455 131.896 134.187 132.807 135.408 133.457C136.507 134.108 137.85 134.368 139.438 134.368C140.781 134.368 142.124 134.238 143.345 133.847C144.566 133.457 145.542 133.067 146.397 132.547C146.886 132.937 147.374 133.457 147.74 134.108C148.107 134.758 148.351 135.408 148.351 136.189C148.351 137.88 147.618 139.05 146.153 139.831C145.054 140.481 143.833 140.871 142.49 141.132C141.147 141.392 139.804 141.522 138.705 141.522C136.751 141.522 134.798 141.262 133.088 140.611C131.379 139.961 129.914 139.05 128.571 137.88C127.228 136.709 126.251 135.148 125.518 133.327C124.786 131.506 124.419 129.425 124.419 126.953C124.419 124.612 124.786 122.531 125.518 120.71C126.251 119.019 127.228 117.588 128.449 116.417C129.67 115.247 131.013 114.466 132.478 113.946C134.065 113.426 135.53 113.165 137.24 113.165C139.071 113.165 140.659 113.426 142.124 114.076C143.589 114.596 144.932 115.507 145.909 116.417C147.008 117.328 147.862 118.498 148.473 119.929ZM141.147 123.051C141.025 122.271 140.659 121.62 140.048 120.84C139.438 120.059 138.461 119.799 137.24 119.799C136.385 119.799 135.775 119.929 135.164 120.189C134.554 120.45 134.065 120.84 133.699 121.36C133.333 121.75 133.088 122.271 132.844 122.921C132.6 123.441 132.6 124.092 132.478 124.612L141.147 123.051ZM169.596 114.076C168.619 113.426 167.398 113.035 165.689 113.035C164.712 113.035 163.735 113.165 162.759 113.296C161.782 113.426 160.805 113.686 159.95 113.946C158.973 114.206 158.119 114.596 157.386 114.986C156.654 115.377 155.921 115.767 155.311 116.287C154.822 116.808 154.334 117.328 154.09 117.848C153.845 118.499 153.601 119.149 153.601 120.059V136.449C153.601 137.359 153.723 138.14 153.967 138.66C154.212 139.18 154.456 139.701 154.944 139.961C155.433 140.221 155.799 140.481 156.409 140.611C157.02 140.741 157.63 140.741 158.485 140.741C159.218 140.741 160.072 140.741 160.805 140.611C161.538 140.481 162.026 140.351 162.392 140.221V121.62C162.881 121.36 163.369 121.23 163.98 121.1C164.59 120.97 165.323 120.84 166.055 120.58C166.788 120.32 167.52 120.32 168.253 120.189C168.986 120.059 169.718 120.059 170.451 120.059C170.695 119.669 170.817 119.279 170.939 118.759C171.061 118.238 171.183 117.718 171.183 117.198C170.939 115.897 170.451 114.726 169.596 114.076ZM189.987 114.076C189.01 113.426 187.789 113.035 186.08 113.035C185.103 113.035 184.126 113.165 183.149 113.296C182.172 113.426 181.196 113.686 180.341 113.946C179.364 114.206 178.509 114.596 177.777 114.986C177.044 115.377 176.312 115.767 175.701 116.287C175.213 116.808 174.724 117.328 174.48 117.848C174.236 118.499 173.992 119.149 173.992 120.059V136.449C173.992 137.359 174.114 138.14 174.358 138.66C174.602 139.18 174.846 139.701 175.335 139.961C175.823 140.221 176.189 140.481 176.8 140.611C177.41 140.741 178.021 140.741 178.876 140.741C179.608 140.741 180.463 140.741 181.196 140.611C181.928 140.481 182.417 140.351 182.783 140.221V121.62C183.271 121.36 183.76 121.23 184.37 121.1C184.981 120.97 185.713 120.84 186.446 120.58C187.178 120.32 187.911 120.32 188.644 120.189C189.376 120.059 190.109 120.059 190.841 120.059C191.086 119.669 191.208 119.279 191.33 118.759C191.452 118.238 191.574 117.718 191.574 117.198C191.452 115.897 190.964 114.726 189.987 114.076ZM218.924 114.076C218.192 113.556 217.093 113.296 215.994 113.296C214.529 113.296 213.186 113.686 211.965 114.336C211.72 115.767 211.476 117.328 211.11 118.889C210.744 120.45 210.377 122.011 210.011 123.571C209.645 125.132 209.278 126.563 208.912 128.124C208.546 129.555 208.18 130.856 207.691 132.156H207.447L203.418 117.198C203.051 115.767 202.441 114.726 201.708 114.206C200.976 113.686 199.877 113.426 198.778 113.426C197.801 113.426 196.946 113.556 196.092 113.946C195.237 114.336 194.627 114.726 194.138 115.247C194.627 117.718 195.237 119.799 195.725 121.75C196.214 123.571 196.702 125.262 197.191 126.693C197.679 128.124 198.045 129.425 198.534 130.595C198.9 131.766 199.388 132.677 199.755 133.587C200.487 135.408 201.22 136.709 201.952 137.359C202.685 138.01 203.296 138.4 203.784 138.66C202.929 139.831 201.952 141.001 200.854 142.042C199.755 143.213 198.656 144.123 197.557 145.034C197.679 146.465 198.289 147.635 199.144 148.546C199.999 149.456 201.22 149.847 202.563 149.847C203.418 149.847 204.15 149.717 204.883 149.456C205.615 149.196 206.348 148.806 207.081 148.156C207.813 147.505 208.668 146.595 209.401 145.554C210.255 144.383 211.11 142.953 212.087 141.262C212.697 140.221 213.308 139.05 213.918 137.75C214.529 136.449 215.139 135.018 215.75 133.587C216.36 132.156 216.849 130.595 217.459 129.035C217.947 127.474 218.436 126.043 218.802 124.482C219.169 123.051 219.535 121.62 219.779 120.32C220.023 119.019 220.145 117.848 220.145 116.938C220.145 115.637 219.779 114.726 218.924 114.076ZM79.3646 157.261C80.0972 158.302 80.4635 159.732 80.4635 161.683V161.814C80.4635 163.635 80.0972 165.065 79.3646 166.106C78.632 167.147 77.5331 167.667 76.3122 167.667C74.847 167.667 73.626 167.147 72.8934 165.976V171.959H71.6724V155.83H72.7712V157.521C73.5038 156.22 74.7248 155.7 76.19 155.7C77.6552 155.7 78.632 156.22 79.3646 157.261ZM79.3646 161.553C79.3646 160.123 79.1204 158.822 78.5099 158.041C77.8994 157.261 77.1668 156.741 76.0679 156.741C75.3353 156.741 74.7249 156.871 74.1144 157.261C73.5039 157.651 73.1376 158.171 72.8934 158.952V164.545C73.1376 165.195 73.626 165.716 74.1144 166.106C74.6028 166.496 75.3353 166.626 76.0679 166.626C77.0447 166.626 77.8994 166.236 78.5099 165.326C78.9983 164.545 79.3646 163.244 79.3646 161.553ZM83.3939 167.537H84.6149V150.887H83.3939V167.537ZM95.7259 164.935C95.7259 166.106 95.8481 166.886 96.0923 167.537V167.667H94.7491C94.627 167.277 94.5049 166.756 94.5049 165.976C94.1386 166.626 93.5281 167.017 92.9176 167.407C92.3072 167.667 91.5745 167.927 90.8419 167.927C89.743 167.927 88.8884 167.667 88.2779 167.017C87.6674 166.366 87.3011 165.586 87.3011 164.675C87.3011 163.505 87.7895 162.594 88.6442 161.944C89.4989 161.293 90.7199 160.903 92.3072 160.903H94.5049V159.602C94.5049 158.822 94.2608 158.171 93.7724 157.651C93.284 157.131 92.5514 156.871 91.6967 156.871C90.842 156.871 90.1093 157.131 89.6209 157.521C89.0105 158.041 88.7663 158.562 88.7663 159.212H87.5453C87.5453 158.302 87.9116 157.521 88.7663 156.741C89.621 155.96 90.5978 155.7 91.6967 155.7C92.9176 155.7 93.8945 156.09 94.6271 156.741C95.3597 157.391 95.7259 158.302 95.7259 159.472V164.935ZM94.5049 161.814H92.3072C91.0862 161.814 90.1094 162.074 89.4989 162.464C88.8884 162.854 88.5221 163.505 88.5221 164.285C88.5221 164.935 88.7663 165.456 89.2547 165.976C89.7431 166.366 90.3536 166.626 91.0862 166.626C91.9409 166.626 92.6734 166.366 93.2839 165.976C93.8944 165.586 94.3829 164.935 94.6271 164.285V161.814H94.5049ZM102.319 166.626C101.831 166.626 101.465 166.496 101.22 166.106C100.976 165.846 100.854 165.326 100.854 164.675V156.871H103.174V155.83H100.854V152.838H99.6331V155.83H97.5574V156.871H99.6331V164.675C99.6331 165.716 99.8773 166.496 100.244 166.886C100.61 167.407 101.22 167.667 102.075 167.667C102.564 167.667 103.052 167.667 103.418 167.537V166.496C102.808 166.626 102.441 166.626 102.319 166.626ZM107.325 151.668C106.715 152.318 106.471 153.229 106.471 154.399V155.83H104.639V156.871H106.471V167.537H107.692V156.871H110.256V155.83H107.692V154.399C107.692 153.619 107.936 152.968 108.302 152.448C108.669 152.058 109.157 151.798 109.89 151.798C110.256 151.798 110.622 151.798 110.988 151.928L111.11 150.887C110.744 150.757 110.256 150.757 109.767 150.757C108.791 150.757 107.936 151.017 107.325 151.668ZM120.268 157.261C121.123 158.302 121.611 159.732 121.611 161.553V161.814C121.611 162.984 121.367 164.025 121.001 164.805C120.634 165.716 120.024 166.366 119.291 166.886C118.559 167.407 117.704 167.667 116.727 167.667C115.262 167.667 114.041 167.147 113.186 165.976C112.332 164.805 111.843 163.505 111.843 161.683V161.423C111.843 160.253 112.087 159.342 112.454 158.432C112.82 157.521 113.43 156.871 114.163 156.35C114.896 155.83 115.75 155.57 116.727 155.57C118.192 155.7 119.413 156.22 120.268 157.261ZM120.39 161.553C120.39 160.643 120.268 159.862 119.902 159.082C119.535 158.301 119.169 157.781 118.559 157.391C117.948 157.001 117.338 156.741 116.605 156.741C115.506 156.741 114.651 157.131 113.919 158.041C113.186 158.952 112.942 160.123 112.942 161.553V161.814C112.942 163.244 113.308 164.415 113.919 165.195C114.651 166.106 115.506 166.496 116.605 166.496C117.704 166.496 118.559 166.106 119.291 165.195C120.024 164.285 120.268 163.114 120.268 161.683V161.553H120.39ZM125.396 157.781V155.96H124.175V167.667H125.396V159.602C125.64 158.692 126.007 158.041 126.495 157.651C126.983 157.261 127.716 157.001 128.449 157.001C128.693 157.001 129.059 157.001 129.303 157.131V155.96C129.059 155.83 128.815 155.83 128.449 155.83C126.983 155.7 126.007 156.35 125.396 157.781ZM142.856 155.7C142.124 155.7 141.391 155.96 140.659 156.35C140.048 156.741 139.438 157.261 139.071 158.041C138.583 156.48 137.484 155.83 135.775 155.83C135.042 155.83 134.309 155.96 133.699 156.35C133.088 156.741 132.6 157.261 132.234 157.911V155.96H131.013V167.667H132.234V159.602C132.478 158.692 132.844 158.041 133.455 157.521C133.943 157.001 134.676 156.871 135.408 156.871C136.263 156.871 136.996 157.131 137.362 157.651C137.85 158.171 137.972 158.952 137.972 159.862V167.667H139.193V159.992C139.315 159.212 139.56 158.432 140.17 157.911C140.781 157.261 141.513 157.001 142.368 157.001C143.345 157.001 143.955 157.261 144.444 157.781C144.81 158.301 145.054 159.082 145.054 160.123V167.797H146.275V159.992C146.397 157.001 145.176 155.7 142.856 155.7ZM161.904 15.7391C158.241 11.9669 154.09 9.8857 154.09 9.8857C154.09 9.8857 151.403 21.5925 142.246 30.3075C143.101 31.4782 143.711 32.7789 144.322 34.0797C148.351 31.9985 156.043 26.6654 161.904 15.7391ZM158.729 47.8677C154.09 41.3639 149.205 38.6323 145.787 37.5917C147.984 36.6812 150.671 36.6812 154.09 36.8113C150.915 34.7301 147.252 34.3398 144.566 34.6C145.542 37.0714 146.031 39.803 146.031 42.5346C146.031 43.0549 146.031 43.5752 145.909 44.0955C150.427 44.0955 154.456 45.2662 158.729 47.8677ZM139.071 15.2188C139.071 18.3406 137.972 22.6331 137.24 25.2346C138.461 26.1451 139.682 27.1857 140.659 28.3564C141.147 22.503 140.292 18.4707 139.071 15.2188ZM145.787 81.9474C152.502 79.606 157.264 72.8421 157.264 64.9075C157.264 55.8022 150.915 48.388 142.734 47.2173C143.101 45.7865 143.345 44.2255 143.345 42.6646C143.345 35.3804 139.315 29.2669 133.577 26.4052C134.676 24.0639 135.286 21.3323 135.286 18.6007C135.286 8.3248 127.472 0 117.826 0C110.134 0 103.662 5.33308 101.343 12.6173C98.6564 9.49548 94.8712 7.41428 90.4757 7.41428C82.4171 7.41428 75.9459 14.3083 75.9459 22.8932C75.9459 25.885 76.8006 28.6165 78.1436 31.088C77.6552 31.088 77.0448 30.9579 76.5564 30.9579C68.4978 30.9579 62.0265 37.8519 62.0265 46.4368C62.0265 51.2496 64.1022 55.5421 67.3989 58.4038C64.8348 61.0053 63.2475 64.6474 63.2475 68.6797C63.2475 74.7932 66.9105 79.9962 72.0387 82.0774C59.8287 84.1586 53.968 86.6301 53.968 86.6301C53.968 86.6301 75.9458 82.8579 109.157 82.8579C142.368 82.8579 164.346 86.6301 164.346 86.6301C164.346 86.6301 158.241 84.0286 145.787 81.9474Z" fill="url(#paint0_linear_64_119)"/>
<defs>
<linearGradient id="paint0_linear_64_119" x1="0.0252746" y1="86.0123" x2="220.141" y2="86.0123" gradientUnits="userSpaceOnUse">
<stop stop-color="#9C0278"/>
<stop offset="0.1868" stop-color="#93047B"/>
<stop offset="0.4972" stop-color="#790A84"/>
<stop offset="0.8909" stop-color="#501493"/>
<stop offset="0.9944" stop-color="#441797"/>
</linearGradient>
</defs>
</svg>
