<svg width="345" height="69" viewBox="0 0 345 69" fill="none" xmlns="http://www.w3.org/2000/svg">
<g clip-path="url(#clip0_64_90)">
<path d="M75.0947 30.2295V0H93.8858V5.26824H81.0928V12.4666H92.6337V17.7349H81.0928V30.2295H75.0947Z" fill="#303434"/>
<path d="M97.1338 30.2295V0H103.132V24.9519H115.294V30.2201H97.1338V30.2295Z" fill="#303434"/>
<path d="M118.5 30.2295V0H137.624V5.26824H124.498V12.4666H136.634V17.7349H124.498V24.9519H137.676V30.2201H118.5V30.2295Z" fill="#303434"/>
<path d="M147.246 0L152.973 10.3034H153.192L158.945 0H165.722L157.062 15.1147L165.915 30.2295H159.015L153.192 19.9168H152.973L147.15 30.2295H140.276L149.164 15.1147L140.451 0H147.246Z" fill="#303434"/>
<path d="M168.726 30.2295V0H180.091C183.226 0 185.573 0.727301 187.149 2.18189C188.725 3.63649 189.513 5.49203 189.513 7.74851C189.513 9.52946 189.032 10.9654 188.06 12.0657C187.088 13.1659 185.862 13.8932 184.391 14.2476V14.5459C185.468 14.5926 186.483 14.9189 187.429 15.5157C188.375 16.1124 189.145 16.9516 189.741 18.0239C190.327 19.0962 190.625 20.383 190.625 21.8749C190.625 23.4786 190.257 24.9146 189.513 26.1734C188.769 27.4322 187.674 28.4205 186.221 29.1478C184.767 29.8751 182.981 30.2295 180.853 30.2295H168.726ZM174.724 12.6531H179.172C180.398 12.6531 181.422 12.3174 182.237 11.6274C183.051 10.9468 183.454 10.005 183.454 8.82081C183.454 7.72986 183.095 6.84405 182.368 6.18203C181.641 5.51068 180.617 5.175 179.286 5.175H174.724V12.6531ZM174.724 24.9985H179.618C181.3 24.9985 182.526 24.6535 183.287 23.9635C184.049 23.2735 184.434 22.3691 184.434 21.2315C184.434 19.982 184.014 18.9564 183.182 18.1638C182.342 17.3712 181.203 16.9703 179.767 16.9703H174.732V24.9985H174.724Z" fill="#303434"/>
<path d="M193.734 30.2295V0H212.858V5.26824H199.732V12.4666H211.869V17.7349H199.732V24.9519H212.911V30.2201H193.734V30.2295Z" fill="#303434"/>
<path d="M216.859 30.2295V0H228.059C231.281 0 233.785 0.89514 235.563 2.68541C237.34 4.47568 238.234 6.87203 238.234 9.87446C238.234 11.9445 237.805 13.7068 236.938 15.1707C236.071 16.6346 234.836 17.7349 233.216 18.4808L239.241 30.2295H232.612L227.236 19.5158H222.857V30.2295H216.859ZM222.857 14.3781H226.929C230.335 14.3781 232.043 12.8769 232.043 9.87446C232.043 6.77878 230.327 5.22162 226.903 5.22162H222.857V14.3781Z" fill="#303434"/>
<path d="M241.684 30.2295V0H252.883C256.105 0 258.61 0.89514 260.387 2.68541C262.165 4.47568 263.058 6.87203 263.058 9.87446C263.058 11.9445 262.629 13.7068 261.762 15.1707C260.895 16.6346 259.66 17.7349 258.04 18.4808L264.065 30.2295H257.436L252.06 19.5158H247.682V30.2295H241.684ZM247.682 14.3781H251.753C255.16 14.3781 256.867 12.8769 256.867 9.87446C256.867 6.77878 255.151 5.22162 251.727 5.22162H247.682V14.3781Z" fill="#303434"/>
<path d="M264.854 0H271.578L278.049 13.0168H278.33L284.8 0H291.517L281.167 19.5438V30.2295H275.204V19.5438L264.854 0Z" fill="#303434"/>
<path d="M31.5579 19.031H0C0 8.69031 7.87196 0.307739 17.5827 0.307739H31.5579V19.031Z" fill="#710FD8"/>
<path d="M63.1068 19.031H36.2686C36.2686 8.69031 44.1405 0.307739 53.8513 0.307739H63.1155V19.031H63.1068Z" fill="#25D838"/>
<path d="M45.5328 43.2274H36.2686V24.5042H63.1068C63.1068 34.8448 55.2348 43.2274 45.5328 43.2274Z" fill="#25D838"/>
<path d="M45.5329 67.415H22.4424V48.6918H63.1069C63.1069 59.0418 55.2349 67.415 45.5329 67.415Z" fill="#710FD8"/>
<path d="M31.5579 24.5042H0V37.6981V43.2181V49.5866C0 59.4331 7.49543 67.4147 16.7421 67.4147H17.5827V43.2181H31.5579V24.5042Z" fill="#710FD8"/>
<path d="M81.7252 67.8868H75.3047L85.0876 37.71H92.8086L102.578 67.8868H96.1571L89.0592 44.6059H88.8376L81.7252 67.8868ZM81.3239 56.0254H96.4898V61.0057H81.3239V56.0254Z" fill="#303434"/>
<path d="M111.98 37.71V67.8868H105.988V37.71H111.98Z" fill="#303434"/>
<path d="M130.813 67.8868H124.393L134.175 37.71H141.897L151.665 67.8868H145.245L138.146 44.6059H137.925L130.813 67.8868ZM130.412 56.0254H145.577V61.0057H130.412V56.0254Z" fill="#303434"/>
<path d="M169.803 46.3886C169.692 45.2 169.218 44.2766 168.378 43.6185C167.538 42.9603 166.399 42.6312 164.96 42.6312C163.982 42.6312 163.156 42.7786 162.483 43.0733C161.81 43.3581 161.293 43.756 160.933 44.2668C160.583 44.7776 160.408 45.3572 160.408 46.0055C160.389 46.5458 160.495 47.0173 160.726 47.4201C160.966 47.8228 161.293 48.1715 161.708 48.4662C162.123 48.7511 162.603 49.0016 163.148 49.2177C163.691 49.424 164.273 49.6008 164.891 49.7482L167.437 50.3965C168.673 50.6912 169.808 51.0841 170.841 51.5753C171.874 52.0664 172.769 52.6705 173.526 53.3877C174.281 54.1047 174.867 54.9496 175.282 55.922C175.707 56.8945 175.924 58.0095 175.933 59.2668C175.924 61.1136 175.481 62.7148 174.605 64.0704C173.738 65.4161 172.483 66.4623 170.841 67.2089C169.208 67.9456 167.239 68.314 164.932 68.314C162.644 68.314 160.652 67.9408 158.954 67.1942C157.266 66.4476 155.947 65.3425 154.997 63.8788C154.056 62.4054 153.563 60.5832 153.517 58.4123H159.314C159.379 59.424 159.651 60.2688 160.131 60.9466C160.62 61.6146 161.27 62.1205 162.082 62.4643C162.903 62.7983 163.83 62.9653 164.863 62.9653C165.878 62.9653 166.759 62.8081 167.506 62.4938C168.262 62.1795 168.848 61.7423 169.263 61.1823C169.678 60.6224 169.886 59.979 169.886 59.2521C169.886 58.5743 169.697 58.0046 169.319 57.5429C168.95 57.0812 168.406 56.6883 167.686 56.3641C166.976 56.04 166.104 55.7452 165.071 55.48L161.985 54.6548C159.596 54.036 157.709 53.0684 156.326 51.7521C154.942 50.4358 154.255 48.6627 154.264 46.4328C154.255 44.6057 154.711 43.0094 155.634 41.6441C156.566 40.2786 157.843 39.2127 159.467 38.4466C161.09 37.6804 162.935 37.2972 165.001 37.2972C167.105 37.2972 168.941 37.6804 170.509 38.4466C172.086 39.2127 173.313 40.2786 174.189 41.6441C175.066 43.0094 175.518 44.591 175.546 46.3886H169.803Z" fill="#303434"/>
<path d="M195.336 46.3886C195.225 45.2 194.75 44.2766 193.911 43.6185C193.071 42.9603 191.932 42.6312 190.493 42.6312C189.515 42.6312 188.69 42.7786 188.016 43.0733C187.343 43.3581 186.826 43.756 186.466 44.2668C186.116 44.7776 185.94 45.3572 185.94 46.0055C185.922 46.5458 186.028 47.0173 186.259 47.4201C186.499 47.8228 186.826 48.1715 187.241 48.4662C187.656 48.7511 188.136 49.0016 188.68 49.2177C189.225 49.424 189.806 49.6008 190.423 49.7482L192.97 50.3965C194.206 50.6912 195.341 51.0841 196.373 51.5753C197.407 52.0664 198.302 52.6705 199.058 53.3877C199.815 54.1047 200.4 54.9496 200.815 55.922C201.24 56.8945 201.456 58.0095 201.466 59.2668C201.456 61.1136 201.014 62.7148 200.138 64.0704C199.27 65.4161 198.016 66.4623 196.373 67.2089C194.741 67.9456 192.772 68.314 190.465 68.314C188.177 68.314 186.185 67.9408 184.488 67.1942C182.799 66.4476 181.481 65.3425 180.531 63.8788C179.589 62.4054 179.095 60.5832 179.05 58.4123H184.847C184.912 59.424 185.184 60.2688 185.663 60.9466C186.153 61.6146 186.803 62.1205 187.614 62.4643C188.436 62.7983 189.363 62.9653 190.396 62.9653C191.411 62.9653 192.292 62.8081 193.039 62.4938C193.795 62.1795 194.381 61.7423 194.796 61.1823C195.211 60.6224 195.419 59.979 195.419 59.2521C195.419 58.5743 195.23 58.0046 194.852 57.5429C194.483 57.0812 193.938 56.6883 193.218 56.3641C192.508 56.04 191.637 55.7452 190.604 55.48L187.518 54.6548C185.128 54.036 183.242 53.0684 181.859 51.7521C180.474 50.4358 179.787 48.6627 179.797 46.4328C179.787 44.6057 180.244 43.0094 181.166 41.6441C182.098 40.2786 183.376 39.2127 185 38.4466C186.623 37.6804 188.468 37.2972 190.535 37.2972C192.638 37.2972 194.473 37.6804 196.041 38.4466C197.619 39.2127 198.846 40.2786 199.723 41.6441C200.599 43.0094 201.051 44.591 201.078 46.3886H195.336Z" fill="#303434"/>
<path d="M211.488 37.71V67.8868H205.496V37.71H211.488Z" fill="#303434"/>
<path d="M231.79 46.3886C231.68 45.2 231.204 44.2766 230.364 43.6185C229.525 42.9603 228.386 42.6312 226.947 42.6312C225.969 42.6312 225.144 42.7786 224.47 43.0733C223.797 43.3581 223.28 43.756 222.921 44.2668C222.569 44.7776 222.394 45.3572 222.394 46.0055C222.376 46.5458 222.482 47.0173 222.713 47.4201C222.953 47.8228 223.28 48.1715 223.695 48.4662C224.111 48.7511 224.59 49.0016 225.134 49.2177C225.679 49.424 226.259 49.6008 226.878 49.7482L229.424 50.3965C230.66 50.6912 231.794 51.0841 232.827 51.5753C233.861 52.0664 234.756 52.6705 235.512 53.3877C236.269 54.1047 236.854 54.9496 237.27 55.922C237.694 56.8945 237.911 58.0095 237.92 59.2668C237.911 61.1136 237.467 62.7148 236.592 64.0704C235.724 65.4161 234.47 66.4623 232.827 67.2089C231.195 67.9456 229.225 68.314 226.92 68.314C224.632 68.314 222.639 67.9408 220.942 67.1942C219.253 66.4476 217.934 65.3425 216.984 63.8788C216.043 62.4054 215.549 60.5832 215.504 58.4123H221.301C221.366 59.424 221.638 60.2688 222.118 60.9466C222.606 61.6146 223.257 62.1205 224.068 62.4643C224.89 62.7983 225.817 62.9653 226.85 62.9653C227.864 62.9653 228.746 62.8081 229.493 62.4938C230.25 62.1795 230.835 61.7423 231.25 61.1823C231.665 60.6224 231.873 59.979 231.873 59.2521C231.873 58.5743 231.684 58.0046 231.306 57.5429C230.937 57.0812 230.392 56.6883 229.673 56.3641C228.962 56.04 228.091 55.7452 227.058 55.48L223.972 54.6548C221.583 54.036 219.696 53.0684 218.312 51.7521C216.929 50.4358 216.241 48.6627 216.251 46.4328C216.241 44.6057 216.698 43.0094 217.62 41.6441C218.552 40.2786 219.83 39.2127 221.454 38.4466C223.077 37.6804 224.922 37.2972 226.989 37.2972C229.092 37.2972 230.927 37.6804 232.496 38.4466C234.073 39.2127 235.3 40.2786 236.177 41.6441C237.052 43.0094 237.505 44.591 237.532 46.3886H231.79Z" fill="#303434"/>
<path d="M240.871 42.9703V37.71H264.145V42.9703H255.469V67.8868H249.547V42.9703H240.871Z" fill="#303434"/>
<path d="M269.4 67.8868H262.979L272.762 37.71H280.483L290.253 67.8868H283.833L276.734 44.6059H276.512L269.4 67.8868ZM268.999 56.0254H284.165V61.0057H268.999V56.0254Z" fill="#303434"/>
<path d="M317.366 37.71V67.8868H312.192L299.863 48.8936H299.655V67.8868H293.663V37.71H298.921L311.154 56.6884H311.403V37.71H317.366Z" fill="#303434"/>
<path d="M321.238 42.9703V37.71H344.513V42.9703H335.836V67.8868H329.914V42.9703H321.238Z" fill="#303434"/>
</g>
<defs>
<clipPath id="clip0_64_90">
<rect width="345" height="69" fill="white"/>
</clipPath>
</defs>
</svg>
