<svg width="30" height="30" viewBox="0 0 30 30" fill="none" xmlns="http://www.w3.org/2000/svg">
<path d="M24.0651 12.9785C23.8042 13.2393 23.4781 13.3698 23.152 13.3698C22.826 13.3698 22.4999 13.2393 22.239 12.9785L16.3042 7.04367V26.0871C16.3042 26.8045 15.7173 27.3915 14.9999 27.3915C14.2825 27.3915 13.6955 26.8045 13.6955 26.0871V7.04367L7.76074 12.9785C7.239 13.5002 6.42379 13.5002 5.90205 12.9785C5.38031 12.4567 5.38031 11.6415 5.90205 11.1198L14.0542 3.00019C14.576 2.47845 15.3912 2.47845 15.8803 3.00019L24.0325 11.1198C24.5868 11.6415 24.5868 12.4567 24.0651 12.9785Z" fill="white"/>
</svg>
