<svg width="100" height="100" viewBox="0 0 100 100" fill="none" xmlns="http://www.w3.org/2000/svg">
<g clip-path="url(#clip0_164_954)">
<path d="M98.4375 0H1.5625C1.1481 0 0.750671 0.16462 0.457646 0.457646C0.16462 0.750671 0 1.1481 0 1.5625L0 81.25C0 81.6644 0.16462 82.0618 0.457646 82.3549C0.750671 82.6479 1.1481 82.8125 1.5625 82.8125H37.5C37.5 83.2269 37.6646 83.6243 37.9576 83.9174C38.2507 84.2104 38.6481 84.375 39.0625 84.375V85.9375C38.6481 85.9375 38.2507 86.1021 37.9576 86.3951C37.6646 86.6882 37.5 87.0856 37.5 87.5C37.5 87.9144 37.6646 88.3118 37.9576 88.6049C38.2507 88.8979 38.6481 89.0625 39.0625 89.0625C39.0658 90.5143 39.5744 91.9197 40.5011 93.0374C41.4277 94.1551 42.7145 94.9153 44.1406 95.1875C46.2813 101.578 53.6875 101.719 55.8594 95.1875C57.0173 94.963 58.0882 94.4155 58.9481 93.6081C59.808 92.8008 60.4218 91.7665 60.7188 90.625C61.1332 90.6685 61.5479 90.5456 61.8717 90.2834C62.1955 90.0211 62.4018 89.641 62.4453 89.2266C62.4888 88.8122 62.3659 88.3974 62.1037 88.0737C61.8414 87.7499 61.4613 87.5435 61.0469 87.5C60.8906 87.5 60.9375 87.7344 60.9375 85.9375C61.3519 85.9375 61.7493 85.7729 62.0424 85.4799C62.3354 85.1868 62.5 84.7894 62.5 84.375C62.5 83.9606 62.3354 83.5632 62.0424 83.2701C61.7493 82.9771 61.3519 82.8125 60.9375 82.8125H98.4375C98.8519 82.8125 99.2493 82.6479 99.5424 82.3549C99.8354 82.0618 100 81.6644 100 81.25V1.5625C100 1.1481 99.8354 0.750671 99.5424 0.457646C99.2493 0.16462 98.8519 0 98.4375 0ZM3.125 3.125H96.875V12.5H3.125V3.125ZM42.1875 79.6875H57.8125V82.5781L42.1875 81.4687V79.6875ZM57.8125 76.5625H42.1875C41.7813 72.3125 39.6094 69.5 36.3438 66.5C33.396 63.7947 31.3128 60.279 30.3556 56.3942C29.3984 52.5093 29.6098 48.4283 30.9634 44.6631C32.3169 40.898 34.7522 37.6164 37.9638 35.2302C41.1753 32.844 45.0201 31.4593 49.0156 31.25C67.9844 30.3438 77.5937 53.6562 63.7812 66.4219C60.4844 69.5 58.3125 72.3281 57.8906 76.5625H57.8125ZM47.5 95.3125H52.5C52.2716 95.781 51.9161 96.176 51.4741 96.4522C51.032 96.7285 50.5213 96.875 50 96.875C49.4787 96.875 48.968 96.7285 48.5259 96.4522C48.0839 96.176 47.7284 95.781 47.5 95.3125ZM54.6875 92.1875H45.3125C44.5228 92.1897 43.7614 91.8928 43.1817 91.3566C42.6019 90.8203 42.2467 90.0844 42.1875 89.2969L57.5 90.3906C57.249 90.9253 56.8515 91.3779 56.3537 91.696C55.8559 92.014 55.2782 92.1844 54.6875 92.1875ZM42.1875 86.1562V84.5937L57.8125 85.7031V87.2656L42.1875 86.1562ZM60.9375 79.6875C60.9375 75.2969 61.125 73.1562 65.9063 68.75C69.3771 65.5544 71.8027 61.3857 72.8659 56.7892C73.9291 52.1926 73.5803 47.3822 71.8651 42.9871C70.15 38.592 67.1483 34.8168 63.2528 32.1554C59.3572 29.4939 54.7492 28.0701 50.0313 28.0701C45.3133 28.0701 40.7053 29.4939 36.8097 32.1554C32.9142 34.8168 29.9125 38.592 28.1974 42.9871C26.4822 47.3822 26.1334 52.1926 27.1966 56.7892C28.2598 61.3857 30.6854 65.5544 34.1563 68.75C38.8438 73.0781 39.0625 75.2188 39.0625 79.6875H3.125V15.625H96.875V79.6875H60.9375Z" fill="#710FD8"/>
<path d="M9.375 6.25C8.9606 6.25 8.56317 6.41462 8.27015 6.70765C7.97712 7.00067 7.8125 7.3981 7.8125 7.8125C7.8125 8.2269 7.97712 8.62433 8.27015 8.91735C8.56317 9.21038 8.9606 9.375 9.375 9.375C9.7894 9.375 10.1868 9.21038 10.4799 8.91735C10.7729 8.62433 10.9375 8.2269 10.9375 7.8125C10.9375 7.3981 10.7729 7.00067 10.4799 6.70765C10.1868 6.41462 9.7894 6.25 9.375 6.25Z" fill="#710FD8"/>
<path d="M17.1875 6.25C16.7731 6.25 16.3757 6.41462 16.0826 6.70765C15.7896 7.00067 15.625 7.3981 15.625 7.8125C15.625 8.2269 15.7896 8.62433 16.0826 8.91735C16.3757 9.21038 16.7731 9.375 17.1875 9.375C17.6019 9.375 17.9993 9.21038 18.2924 8.91735C18.5854 8.62433 18.75 8.2269 18.75 7.8125C18.75 7.3981 18.5854 7.00067 18.2924 6.70765C17.9993 6.41462 17.6019 6.25 17.1875 6.25Z" fill="#710FD8"/>
<path d="M25 6.25C24.5856 6.25 24.1882 6.41462 23.8951 6.70765C23.6021 7.00067 23.4375 7.3981 23.4375 7.8125C23.4375 8.2269 23.6021 8.62433 23.8951 8.91735C24.1882 9.21038 24.5856 9.375 25 9.375C25.4144 9.375 25.8118 9.21038 26.1049 8.91735C26.3979 8.62433 26.5625 8.2269 26.5625 7.8125C26.5625 7.3981 26.3979 7.00067 26.1049 6.70765C25.8118 6.41462 25.4144 6.25 25 6.25Z" fill="#710FD8"/>
<path d="M48.4375 48.4375H54.6875C55.1019 48.4375 55.4993 48.2729 55.7924 47.9799C56.0854 47.6868 56.25 47.2894 56.25 46.875C56.25 46.4606 56.0854 46.0632 55.7924 45.7701C55.4993 45.4771 55.1019 45.3125 54.6875 45.3125H51.5625V43.75C51.5625 43.3356 51.3979 42.9382 51.1049 42.6451C50.8118 42.3521 50.4144 42.1875 50 42.1875C49.5856 42.1875 49.1882 42.3521 48.8951 42.6451C48.6021 42.9382 48.4375 43.3356 48.4375 43.75V45.3125C47.1943 45.3125 46.002 45.8064 45.1229 46.6854C44.2439 47.5645 43.75 48.7568 43.75 50C43.75 51.2432 44.2439 52.4355 45.1229 53.3146C46.002 54.1936 47.1943 54.6875 48.4375 54.6875H51.5625C51.9769 54.6875 52.3743 54.8521 52.6674 55.1451C52.9604 55.4382 53.125 55.8356 53.125 56.25C53.125 56.6644 52.9604 57.0618 52.6674 57.3549C52.3743 57.6479 51.9769 57.8125 51.5625 57.8125H45.3125C44.8981 57.8125 44.5007 57.9771 44.2076 58.2701C43.9146 58.5632 43.75 58.9606 43.75 59.375C43.75 59.7894 43.9146 60.1868 44.2076 60.4799C44.5007 60.7729 44.8981 60.9375 45.3125 60.9375H48.4375V62.5C48.4375 62.9144 48.6021 63.3118 48.8951 63.6049C49.1882 63.8979 49.5856 64.0625 50 64.0625C50.4144 64.0625 50.8118 63.8979 51.1049 63.6049C51.3979 63.3118 51.5625 62.9144 51.5625 62.5V60.9375C52.8057 60.9375 53.998 60.4436 54.8771 59.5646C55.7561 58.6855 56.25 57.4932 56.25 56.25C56.25 55.0068 55.7561 53.8145 54.8771 52.9354C53.998 52.0564 52.8057 51.5625 51.5625 51.5625H48.4375C48.0231 51.5625 47.6257 51.3979 47.3326 51.1049C47.0396 50.8118 46.875 50.4144 46.875 50C46.875 49.5856 47.0396 49.1882 47.3326 48.8951C47.6257 48.6021 48.0231 48.4375 48.4375 48.4375Z" fill="#710FD8"/>
<path d="M82.8125 50H78.125C77.7106 50 77.3132 50.1646 77.0201 50.4576C76.7271 50.7507 76.5625 51.1481 76.5625 51.5625C76.5625 51.9769 76.7271 52.3743 77.0201 52.6674C77.3132 52.9604 77.7106 53.125 78.125 53.125H82.8125C83.2269 53.125 83.6243 52.9604 83.9174 52.6674C84.2104 52.3743 84.375 51.9769 84.375 51.5625C84.375 51.1481 84.2104 50.7507 83.9174 50.4576C83.6243 50.1646 83.2269 50 82.8125 50Z" fill="#710FD8"/>
<path d="M21.875 50H17.1875C16.7731 50 16.3757 50.1646 16.0826 50.4576C15.7896 50.7507 15.625 51.1481 15.625 51.5625C15.625 51.9769 15.7896 52.3743 16.0826 52.6674C16.3757 52.9604 16.7731 53.125 17.1875 53.125H21.875C22.2894 53.125 22.6868 52.9604 22.9799 52.6674C23.2729 52.3743 23.4375 51.9769 23.4375 51.5625C23.4375 51.1481 23.2729 50.7507 22.9799 50.4576C22.6868 50.1646 22.2894 50 21.875 50Z" fill="#710FD8"/>
<path d="M48.4375 18.75V23.4375C48.4375 23.8519 48.6021 24.2493 48.8951 24.5424C49.1882 24.8354 49.5856 25 50 25C50.4144 25 50.8118 24.8354 51.1049 24.5424C51.3979 24.2493 51.5625 23.8519 51.5625 23.4375V18.75C51.5625 18.3356 51.3979 17.9382 51.1049 17.6451C50.8118 17.3521 50.4144 17.1875 50 17.1875C49.5856 17.1875 49.1882 17.3521 48.8951 17.6451C48.6021 17.9382 48.4375 18.3356 48.4375 18.75Z" fill="#710FD8"/>
<path d="M70.9844 70.3125C70.686 70.0162 70.2822 69.8506 69.8617 69.8521C69.4412 69.8535 69.0385 70.022 68.7422 70.3203C68.4459 70.6187 68.2803 71.0226 68.2817 71.443C68.2832 71.8635 68.4517 72.2662 68.75 72.5625C72.3594 76.1563 72.3282 76.3281 73.1719 76.3281C73.4823 76.33 73.7861 76.2393 74.0447 76.0677C74.3034 75.8962 74.505 75.6515 74.624 75.3648C74.7431 75.0782 74.774 74.7626 74.713 74.4583C74.6519 74.154 74.5016 73.8748 74.2813 73.6563L70.9844 70.3125Z" fill="#710FD8"/>
<path d="M27.9063 27.25C27.6121 26.9558 27.213 26.7905 26.7969 26.7905C26.3808 26.7905 25.9818 26.9558 25.6875 27.25C25.3933 27.5443 25.228 27.9433 25.228 28.3594C25.228 28.7755 25.3933 29.1746 25.6875 29.4688C29.2969 33.0625 29.2657 33.2344 30.1094 33.2344C30.4224 33.2426 30.7307 33.1566 30.9942 32.9874C31.2577 32.8183 31.4644 32.5739 31.5873 32.2859C31.7102 31.9979 31.7438 31.6797 31.6837 31.3724C31.6235 31.0651 31.4725 30.7829 31.25 30.5625L27.9063 27.25Z" fill="#710FD8"/>
<path d="M27.9062 75.875L31.2499 72.5625C31.5483 72.2662 31.7167 71.8635 31.7182 71.443C31.7196 71.0226 31.554 70.6187 31.2577 70.3203C30.9614 70.022 30.5587 69.8535 30.1382 69.8521C29.7177 69.8506 29.3139 70.0162 29.0155 70.3125L25.6874 73.625C25.389 73.9192 25.2198 74.3199 25.2168 74.739C25.2139 75.158 25.3776 75.561 25.6718 75.8594C25.966 76.1578 26.3667 76.327 26.7857 76.33C27.2048 76.3329 27.6078 76.1693 27.9062 75.875Z" fill="#710FD8"/>
<path d="M72.0938 27.2499L68.75 30.5624C68.6023 30.7091 68.4849 30.8835 68.4045 31.0756C68.3242 31.2676 68.2825 31.4737 68.2817 31.6819C68.281 31.8901 68.3213 32.0964 68.4003 32.289C68.4793 32.4817 68.5955 32.6569 68.7422 32.8046C68.8889 32.9523 69.0633 33.0697 69.2554 33.1501C69.4475 33.2304 69.6535 33.2721 69.8617 33.2729C70.0699 33.2736 70.2762 33.2333 70.4688 33.1543C70.6615 33.0753 70.8367 32.9591 70.9844 32.8124L74.3125 29.4999C74.6109 29.2057 74.7802 28.805 74.7831 28.3859C74.786 27.9669 74.6224 27.5639 74.3282 27.2655C74.0339 26.9672 73.6332 26.7979 73.2142 26.795C72.7952 26.792 72.3921 26.9557 72.0938 27.2499Z" fill="#710FD8"/>
</g>
<defs>
<clipPath id="clip0_164_954">
<rect width="100" height="100" fill="white"/>
</clipPath>
</defs>
</svg>
