<svg width="42" height="42" viewBox="0 0 42 42" fill="none" xmlns="http://www.w3.org/2000/svg">
<path d="M21 11.6907H0C0 5.23404 5.23835 0 11.7003 0H21V11.6907Z" fill="#303434"/>
<path d="M41.9941 11.6907H24.1392C24.1392 5.23404 29.3762 0 35.8367 0H42V11.6907H41.9941Z" fill="#303434"/>
<path d="M30.3045 26.8455H24.1392V15.1548H42C42 21.6115 36.7612 26.8455 30.3045 26.8455Z" fill="#303434"/>
<path d="M30.3045 42.0001H14.938V30.2012H41.9998C41.9998 36.7235 36.7611 42.0001 30.3045 42.0001Z" fill="#303434"/>
<path d="M21 15.1548H0V23.4091V26.8624V30.8467C0 37.0067 4.98779 42.0001 11.1409 42.0001H11.7003V26.8624H21V15.1548V15.1548Z" fill="#303434"/>
</svg>
