<svg width="100" height="100" viewBox="0 0 100 100" fill="none" xmlns="http://www.w3.org/2000/svg">
<path d="M91.3917 18.2852C93.5752 29.0861 95.1013 39.9975 95.0667 51.0349C95.0472 57.2694 94.5874 63.5284 93.442 69.6642C92.6399 73.9614 88.9613 89.6469 82.8008 76.0444C80.7755 71.5728 81.1332 64.3848 80.7294 59.4504C80.2755 53.9024 80.006 48.3394 79.9357 42.773C79.8732 37.8268 79.9577 32.8739 80.2038 27.9334C80.3472 25.0541 80.4366 22.1327 81.0077 19.2974C81.1041 17.7327 81.5143 16.2557 82.2386 14.8663C83.4626 9.83556 86.3101 11.3035 90.781 19.2703C90.7538 22.0553 95.0807 22.0576 95.1079 19.2703C95.222 7.55497 83.397 -0.23391 78.0096 13.3735C74.7241 21.6719 75.5564 32.2147 75.5996 40.9175C75.6548 52.0485 76.2654 63.3695 78.0978 74.3623C79.7737 84.4165 89.6259 95.0404 95.0968 81.0381C102.783 61.3658 99.6228 37.2119 95.5641 17.1349C95.0127 14.4076 90.8412 15.562 91.3917 18.2852Z" fill="#710FD8"/>
<path d="M80.6167 8.57827C72.3462 12.5637 65.6859 18.9099 57.668 23.0018C48.1544 27.8569 35.2643 28.35 24.82 28.1403C13.1671 27.9064 -0.261069 31.2795 0.22163 45.979C0.691891 60.2998 14.0602 64.0117 25.8288 64.18C32.0554 64.269 37.6654 64.7131 43.4783 67.0472C48.7754 69.1743 52.253 72.6663 56.9382 75.7208C64.2319 80.476 73.5118 82.38 81.9633 83.743C84.6874 84.1823 85.8598 80.0135 83.1136 79.5706C73.8867 78.0826 64.5773 75.979 57.1098 70.1247C53.2881 67.1286 49.3791 64.6474 44.8229 62.8594C39.0067 60.5769 33.6385 59.9041 27.4236 59.848C22.2699 59.8014 16.5058 60.3382 11.809 57.6005C5.70883 54.0447 2.60673 46.0966 6.07297 39.4271C10.6756 30.5711 21.8546 32.6923 29.9848 32.4763C37.0378 32.2889 44.1511 31.3889 51.0176 29.7589C63.1796 26.8718 71.6579 17.684 82.8006 12.3144C85.3083 11.106 83.1164 7.37371 80.6167 8.57827Z" fill="#710FD8"/>
<path d="M33.4682 31.19C33.0497 35.8779 35.5346 40.1828 35.8774 44.8675C36.2529 50.0008 36.2013 55.2009 36.2623 60.3455C36.2952 63.1279 40.6222 63.1353 40.5892 60.3455C40.5282 55.1919 40.5126 50.0136 40.2043 44.8675C39.928 40.2562 37.391 35.7162 37.7952 31.19C38.0427 28.4173 33.7143 28.434 33.4682 31.19Z" fill="#710FD8"/>
<path d="M36.4629 59.3828C36.4629 60.5046 36.4629 61.6264 36.4629 62.7482C36.4629 65.5323 40.7898 65.537 40.7898 62.7482C40.7898 61.6264 40.7898 60.5046 40.7898 59.3828C40.7898 56.5986 36.4629 56.594 36.4629 59.3828Z" fill="#710FD8"/>
<path d="M23.6624 64.1713C28.3756 67.1745 28.4728 72.5517 28.5652 77.5442C28.598 79.3161 28.8066 81.3827 28.6248 83.1447C28.6206 83.6358 28.6164 84.127 28.6121 84.6181C27.7091 88.9629 25.856 89.7462 23.0529 86.968C19.4803 85.0817 19.7889 85.1705 19.1417 81.5492C18.7127 79.149 18.5096 76.6977 18.3903 74.2656C18.1864 70.1092 18.3108 65.9476 18.4294 61.7907C18.5088 59.0054 14.1818 59.0076 14.1024 61.7907C13.8956 69.0409 12.2836 101.105 28.2914 92.3171C33.9402 89.2159 33.0111 83.1602 32.8921 77.5442C32.7484 70.7577 31.9794 64.343 25.8463 60.4351C23.491 58.9343 21.3182 62.6776 23.6624 64.1713Z" fill="#710FD8"/>
</svg>
