<svg width="100" height="100" viewBox="0 0 100 100" fill="none" xmlns="http://www.w3.org/2000/svg">
<g clip-path="url(#clip0_69_243)">
<path d="M8.23635 5.81566C22.4442 5.70014 36.652 5.58461 50.8598 5.46908C57.6548 5.41383 64.4498 5.35858 71.2449 5.30333C76.4268 5.26119 87.6525 3.11718 91.9415 6.3655C95.0897 8.74979 94.1114 11.2937 94.1168 15.1265C94.122 18.9005 94.1273 22.6746 94.1325 26.4486C94.143 33.9968 94.1535 41.5449 94.164 49.093C94.1728 55.3831 94.1815 61.6732 94.1903 67.9633C94.1955 71.7373 94.2008 75.5114 94.206 79.2854C94.2093 81.6275 95.1328 88.4734 94.2218 90.6076C91.5898 96.774 78.5292 94.1844 73.2757 94.1466C66.2275 94.0958 59.1793 94.045 52.1311 93.9942C45.083 93.9435 38.0348 93.8927 30.9866 93.8419C25.6722 93.8036 14.8207 95.7243 9.84206 93.6895C3.54587 91.1162 6.35353 77.6472 6.30454 71.8748C6.25044 65.5013 6.19635 59.1278 6.14225 52.7543C6.07733 45.1061 6.01242 37.4579 5.9475 29.8097C5.92869 27.5924 4.51022 4.55336 8.83593 5.28411C11.5597 5.74424 12.7303 1.57532 9.9862 1.11175C-2.75019 -1.03985 1.5465 21.0809 1.60435 27.8976C1.69632 38.7326 1.78828 49.5675 1.88024 60.4025C1.96555 70.4531 0.518171 81.9518 2.19231 91.8416C2.72448 94.9853 3.54349 96.6259 6.84174 97.7076C10.521 98.9144 15.628 98.0582 19.4532 98.0857C25.2199 98.1273 30.9866 98.1688 36.7533 98.2104C47.0052 98.2842 57.2571 98.3581 67.509 98.432C76.5403 98.497 87.6146 100.259 96.4507 98.2113C97.1868 98.0407 97.7538 97.4043 97.9618 96.7002C99.8728 90.2302 98.5371 82.2483 98.5277 75.5114C98.5155 66.7052 98.5032 57.8991 98.491 49.093C98.4787 40.2868 98.4664 31.4807 98.4542 22.6746C98.4476 17.9409 100.393 8.4656 97.7526 4.34336C95.4552 0.756954 91.7966 0.904722 87.9236 0.840784C79.2856 0.698182 70.6182 0.981497 61.9789 1.05175C44.0647 1.19741 26.1505 1.34308 8.23635 1.48874C5.45334 1.51137 5.44677 5.83835 8.23635 5.81566Z" fill="#710FD8"/>
<path d="M5.19044 28.2742C35.1584 28.2749 65.1263 28.2757 95.0943 28.2764C97.8785 28.2764 97.8831 23.9495 95.0943 23.9494C65.1263 23.9487 35.1584 23.948 5.19044 23.9473C2.40627 23.9472 2.40166 28.2742 5.19044 28.2742Z" fill="#710FD8"/>
<path d="M31.4727 17.0039C34.2568 17.0039 34.2614 12.677 31.4727 12.677C28.6885 12.677 28.6839 17.0039 31.4727 17.0039Z" fill="#710FD8"/>
<path d="M22.3379 17.0039C25.1221 17.0039 25.1267 12.677 22.3379 12.677C19.5537 12.677 19.5491 17.0039 22.3379 17.0039Z" fill="#710FD8"/>
<path d="M14.0049 17.3244C16.7891 17.3244 16.7937 12.9975 14.0049 12.9975C11.2207 12.9975 11.2161 17.3244 14.0049 17.3244Z" fill="#710FD8"/>
<path d="M59.0172 46.5403C65.184 51.817 63.0425 65.6898 56.623 69.6911C48.1052 75.0003 36.9506 72.9825 32.1715 63.7995C29.2309 58.149 30.4967 49.0456 34.663 44.4428C41.4404 36.9554 54.0654 39.8017 59.691 47.0691C61.3932 49.2681 64.4352 46.1857 62.7506 44.0095C59.117 39.3154 55.4151 36.3056 49.4642 36.0312C43.9935 35.779 36.9642 35.4651 32.8417 39.7128C29.4983 43.1579 26.8354 46.697 26.5828 51.4791C26.2455 57.8635 26.1948 62.8622 29.9786 68.084C37.3447 78.2498 51.0686 80.1496 61.1107 71.9294C68.3894 65.9712 69.3725 49.7233 62.0768 43.4807C59.9717 41.6794 56.8972 44.7263 59.0172 46.5403Z" fill="#710FD8"/>
<path d="M54.2295 50.818C57.0137 50.818 57.0183 46.4911 54.2295 46.4911C51.4453 46.4911 51.4407 50.818 54.2295 50.818Z" fill="#710FD8"/>
<path d="M48.9414 43.7735C43.4865 43.7551 36.4563 42.6904 34.6257 49.381C33.8898 52.0706 38.0629 53.2182 38.7981 50.5313C39.3447 48.5333 40.7346 48.1059 42.5978 48.0791C44.7111 48.0486 46.828 48.0933 48.9414 48.1004C51.726 48.1098 51.7298 43.7828 48.9414 43.7735Z" fill="#710FD8"/>
<path d="M61.5506 68.6131C63.9015 70.3754 66.6417 72.0344 68.7852 74.0445C70.0638 75.2436 73.361 81.2713 70.1878 82.6585C68.2168 83.5201 64.8236 80.0689 63.7018 78.9088C61.6109 76.7464 59.737 74.3903 58.0001 71.9379C56.4036 69.6837 52.6498 71.8427 54.2639 74.1218C57.4099 78.5637 67.0014 91.978 73.6405 85.4764C76.5167 82.6599 75.8379 77.8901 74.4723 74.5283C72.7117 70.1946 67.3191 67.5642 63.7345 64.8769C61.5057 63.206 59.3466 66.9608 61.5506 68.6131Z" fill="#710FD8"/>
</g>
<defs>
<clipPath id="clip0_69_243">
<rect width="100" height="100" fill="white"/>
</clipPath>
</defs>
</svg>
