<svg width="100" height="100" viewBox="0 0 100 100" fill="none" xmlns="http://www.w3.org/2000/svg">
<g clip-path="url(#clip0_164_1222)">
<path d="M50 39.0625C51.5452 39.0625 53.0556 38.6043 54.3404 37.7459C55.6252 36.8874 56.6265 35.6673 57.2178 34.2397C57.8091 32.8122 57.9638 31.2413 57.6624 29.7259C57.3609 28.2104 56.6169 26.8183 55.5243 25.7257C54.4317 24.6331 53.0396 23.8891 51.5241 23.5876C50.0087 23.2862 48.4378 23.4409 47.0103 24.0322C45.5827 24.6235 44.3626 25.6249 43.5041 26.9096C42.6457 28.1944 42.1875 29.7048 42.1875 31.25C42.1875 33.322 43.0106 35.3091 44.4757 36.7743C45.9409 38.2394 47.928 39.0625 50 39.0625ZM50 26.5625C50.9271 26.5625 51.8334 26.8374 52.6042 27.3525C53.3751 27.8676 53.9759 28.5996 54.3307 29.4562C54.6855 30.3127 54.7783 31.2552 54.5974 32.1645C54.4166 33.0738 53.9701 33.909 53.3146 34.5646C52.659 35.2201 51.8238 35.6666 50.9145 35.8474C50.0052 36.0283 49.0627 35.9355 48.2062 35.5807C47.3496 35.2259 46.6176 34.6251 46.1025 33.8542C45.5874 33.0834 45.3125 32.1771 45.3125 31.25C45.3125 30.0068 45.8064 28.8145 46.6854 27.9354C47.5645 27.0564 48.7568 26.5625 50 26.5625Z" fill="#710FD8"/>
<path d="M95.3125 84.3751H93.75V28.1251C93.75 26.4675 93.0915 24.8778 91.9194 23.7057C90.7473 22.5336 89.1576 21.8751 87.5 21.8751H62.5C62.3557 17.6293 61.2347 13.4739 59.224 9.73162C57.2133 5.98933 54.367 2.76087 50.9063 0.296986C50.6416 0.108573 50.3248 0.00732422 50 0.00732422C49.6752 0.00732422 49.3584 0.108573 49.0938 0.296986C45.633 2.76087 42.7867 5.98933 40.776 9.73162C38.7653 13.4739 37.6443 17.6293 37.5 21.8751H12.5C10.8424 21.8751 9.25268 22.5336 8.08058 23.7057C6.90848 24.8778 6.25 26.4675 6.25 28.1251V84.3751H4.6875C3.4443 84.3751 2.25201 84.869 1.37294 85.7481C0.49386 86.6271 0 87.8194 0 89.0626L0 92.1876C0 94.2596 0.8231 96.2468 2.28823 97.7119C3.75336 99.177 5.7405 100 7.8125 100H92.1875C94.2595 100 96.2466 99.177 97.7118 97.7119C99.1769 96.2468 100 94.2596 100 92.1876V89.0626C100 87.8194 99.5061 86.6271 98.6271 85.7481C97.748 84.869 96.5557 84.3751 95.3125 84.3751ZM15.625 31.2501H32.2969C25.0937 36.6564 25 36.4532 25 37.5001V42.1876C25 42.602 25.1646 42.9994 25.4576 43.2925C25.7507 43.5855 26.1481 43.7501 26.5625 43.7501H37.7813C38.0329 44.4502 38.4476 45.0803 38.991 45.5884C39.5344 46.0964 40.1909 46.4679 40.9063 46.672L42.1875 51.9376C42.273 52.2843 42.4748 52.5912 42.7591 52.8073C43.0433 53.0233 43.3931 53.1355 43.75 53.1251V64.5001C42.5733 64.0628 41.2989 63.9583 40.0667 64.1981C38.8346 64.4379 37.6924 65.0128 36.7656 65.8595C35.4654 64.9172 33.9449 64.3248 32.3499 64.1389C30.7549 63.953 29.1389 64.1798 27.6568 64.7978C26.1747 65.4157 24.8761 66.404 23.8856 67.6679C22.8951 68.9318 22.2458 70.4289 22 72.0157C20.468 72.2952 19.0544 73.0261 17.9408 74.1147C16.8271 75.2033 16.0642 76.5998 15.75 78.1251C15.625 78.1251 15.625 81.7189 15.625 31.2501ZM37.5 40.6251H28.125V38.2814L37.5 31.2501V40.6251ZM55.0313 50.0001H45.3125C44.8437 50.0001 45.0781 50.4376 44.1875 46.8751H55.8125L55.0313 50.0001ZM23.4375 75.0001C23.8519 75.0001 24.2493 74.8355 24.5424 74.5425C24.8354 74.2494 25 73.852 25 73.4376C25.002 72.2861 25.3221 71.1575 25.9249 70.1763C26.5278 69.1952 27.39 68.3997 28.4164 67.8776C29.4428 67.3556 30.5934 67.1272 31.7414 67.2177C32.8894 67.3083 33.99 67.7142 34.9219 68.3907C32.8125 73.547 37.5 73.4376 37.5 71.0939C37.5 70.0579 37.9116 69.0643 38.6441 68.3317C39.3767 67.5992 40.3702 67.1876 41.4062 67.1876C42.4423 67.1876 43.4358 67.5992 44.1684 68.3317C44.9009 69.0643 45.3125 70.0579 45.3125 71.0939C45.3125 71.5083 45.4771 71.9057 45.7701 72.1987C46.0632 72.4917 46.4606 72.6564 46.875 72.6564C47.2894 72.6564 47.6868 72.4917 47.9799 72.1987C48.2729 71.9057 48.4375 71.5083 48.4375 71.0939C48.4339 69.5042 47.882 67.9645 46.875 66.7345V53.1251H53.125V66.7345C51.4688 68.7501 50.6562 72.6564 53.125 72.6564C53.5394 72.6564 53.9368 72.4917 54.2299 72.1987C54.5229 71.9057 54.6875 71.5083 54.6875 71.0939C54.6875 70.0579 55.099 69.0643 55.8316 68.3317C56.5642 67.5992 57.5577 67.1876 58.5938 67.1876C59.6298 67.1876 60.6233 67.5992 61.3559 68.3317C62.0885 69.0643 62.5 70.0579 62.5 71.0939C62.5 73.4689 67.1875 73.5626 65.0781 68.3907C66.01 67.7142 67.1106 67.3083 68.2586 67.2177C69.4066 67.1272 70.5572 67.3556 71.5836 67.8776C72.61 68.3997 73.4722 69.1952 74.0751 70.1763C74.6779 71.1575 74.998 72.2861 75 73.4376C75 73.852 75.1646 74.2494 75.4576 74.5425C75.7507 74.8355 76.1481 75.0001 76.5625 75.0001C77.5296 75.0028 78.4722 75.3046 79.261 75.8641C80.0499 76.4235 80.6464 77.2133 80.9687 78.1251H19.0313C19.3536 77.2133 19.9501 76.4235 20.739 75.8641C21.5278 75.3046 22.4704 75.0028 23.4375 75.0001ZM84.2188 78.1251C83.9045 76.5998 83.1416 75.2033 82.028 74.1147C80.9144 73.0261 79.5008 72.2952 77.9688 72.0157C77.7229 70.4289 77.0737 68.9318 76.0831 67.6679C75.0926 66.404 73.7941 65.4157 72.312 64.7978C70.8298 64.1798 69.2138 63.953 67.6189 64.1389C66.0239 64.3248 64.5034 64.9172 63.2031 65.8595C62.2803 65.017 61.1435 64.4446 59.9172 64.2048C58.6908 63.9651 57.4222 64.0672 56.25 64.5001V53.1251C56.6069 53.1355 56.9567 53.0233 57.2409 52.8073C57.5252 52.5912 57.727 52.2843 57.8125 51.9376L59.125 46.672C59.8404 46.4679 60.4969 46.0964 61.0403 45.5884C61.5837 45.0803 61.9983 44.4502 62.25 43.7501H73.4375C73.8519 43.7501 74.2493 43.5855 74.5424 43.2925C74.8354 42.9994 75 42.602 75 42.1876V37.5001C75 36.4532 75 36.6876 67.7031 31.2501H84.375C84.375 81.7189 84.4688 78.1251 84.2188 78.1251ZM62.5 31.2501L71.875 38.2814V40.6251H62.5V31.2501ZM54.5313 8.20324C53.1438 8.96924 51.5848 9.37102 50 9.37102C48.4152 9.37102 46.8562 8.96924 45.4688 8.20324C46.7755 6.45594 48.298 4.88094 50 3.51574C51.7007 4.88242 53.223 6.45723 54.5313 8.20324ZM43.75 10.8126C45.6422 11.9332 47.8009 12.5244 50 12.5244C52.1991 12.5244 54.3578 11.9332 56.25 10.8126C60.2969 17.9845 59.375 22.3907 59.375 42.1876C59.375 42.602 59.2104 42.9994 58.9174 43.2925C58.6243 43.5855 58.2269 43.7501 57.8125 43.7501H42.1875C41.7731 43.7501 41.3757 43.5855 41.0826 43.2925C40.7896 42.9994 40.625 42.602 40.625 42.1876C40.625 22.1564 39.7969 17.8751 43.75 10.8126ZM9.375 28.1251C9.375 27.2963 9.70424 26.5015 10.2903 25.9154C10.8763 25.3294 11.6712 25.0001 12.5 25.0001H37.5C37.5 29.0626 40.2031 28.1251 14.0625 28.1251C13.6481 28.1251 13.2507 28.2897 12.9576 28.5828C12.6646 28.8758 12.5 29.2732 12.5 29.6876V79.6876C12.5 80.102 12.6646 80.4994 12.9576 80.7925C13.2507 81.0855 13.6481 81.2501 14.0625 81.2501H85.9375C86.3519 81.2501 86.7493 81.0855 87.0424 80.7925C87.3354 80.4994 87.5 80.102 87.5 79.6876V29.6876C87.5 29.2732 87.3354 28.8758 87.0424 28.5828C86.7493 28.2897 86.3519 28.1251 85.9375 28.1251C59.8906 28.1251 62.5 29.1564 62.5 25.0001H87.5C88.3288 25.0001 89.1237 25.3294 89.7097 25.9154C90.2958 26.5015 90.625 27.2963 90.625 28.1251V84.3751H9.375V28.1251ZM62.7031 87.5001L61.6562 89.0626H38.3438L37.2969 87.5001H62.7031ZM96.875 92.1876C96.875 93.4308 96.3811 94.6231 95.5021 95.5022C94.623 96.3812 93.4307 96.8751 92.1875 96.8751H7.8125C6.5693 96.8751 5.37701 96.3812 4.49794 95.5022C3.61886 94.6231 3.125 93.4308 3.125 92.1876V89.0626C3.125 88.6482 3.28962 88.2508 3.58265 87.9578C3.87567 87.6647 4.2731 87.5001 4.6875 87.5001H33.5312L36.2031 91.4845C36.8594 92.4845 35.5 92.1876 62.5 92.1876C63.5781 92.1876 63.6563 91.7032 66.4688 87.5001H95.3125C95.7269 87.5001 96.1243 87.6647 96.4174 87.9578C96.7104 88.2508 96.875 88.6482 96.875 89.0626V92.1876Z" fill="#710FD8"/>
</g>
<defs>
<clipPath id="clip0_164_1222">
<rect width="100" height="100" fill="white"/>
</clipPath>
</defs>
</svg>
