<svg width="100" height="100" viewBox="0 0 100 100" fill="none" xmlns="http://www.w3.org/2000/svg">
<g clip-path="url(#clip0_69_208)">
<path d="M48.4923 56.0553C48.9911 56.4023 48.2785 59.6041 48.1301 60.0756C47.7165 61.3893 46.93 62.9623 45.6147 63.5648C43.2911 64.6294 37.3501 63.8774 36.3343 61.5973C35.4641 59.644 35.5197 54.8559 36.8375 53.0816C38.1403 51.3276 40.17 51.73 42.0355 51.7631C44.0487 51.7988 47.2473 51.2579 47.2961 54.1688C47.3427 56.9502 51.6697 56.9588 51.623 54.1688C51.5761 51.3682 50.1065 48.7404 47.3044 47.8466C44.4473 46.9353 39.592 46.8922 36.7525 47.8922C30.8404 49.9741 30.5559 59.1609 32.5725 64.0634C33.7678 66.9696 36.3398 67.5426 39.2035 67.876C42.0288 68.205 45.9805 68.6196 48.4918 66.9534C52.3848 64.3704 55.158 55.4362 50.6762 52.3191C48.3849 50.7256 46.2196 54.4747 48.4923 56.0553Z" fill="#710FD8"/>
<path d="M61.4268 68.2026C55.2339 74.6451 38.5732 77.8445 31.3865 70.6909C25.4907 64.8222 21.177 54.8295 25.6767 47.0515C37.8347 26.0356 71.7076 48.7824 61.0885 68.6404C59.7757 71.0953 63.5096 73.2834 64.8246 70.8243C77.5318 47.0616 40.2816 20.2531 23.3262 42.8921C15.6795 53.102 20.6864 66.344 29.1092 74.5359C37.7672 82.9563 56.7896 79.2692 64.4864 71.2622C66.4166 69.2542 63.361 66.1903 61.4268 68.2026Z" fill="#710FD8"/>
<path d="M75.4267 48.7538C78.0962 61.1223 76.6896 71.0747 68.2151 80.5848C61.8966 87.6754 53.1608 93.0471 43.4275 93.2791C33.9074 93.506 21.4585 88.072 15.8209 80.2528C11.7589 74.6189 8.9679 65.2982 7.26786 58.518C4.73879 48.4313 11.3228 44.3525 16.6163 37.3588C22.279 29.8772 27.5964 24.7819 37.1307 23.1229C54.1352 20.1641 72.9438 32.7949 76.1965 50.1976C76.7074 52.9313 80.8784 51.7735 80.3688 49.0474C76.6645 29.2283 55.2741 15.3774 35.9804 18.9506C25.2458 20.9386 18.9677 26.6824 12.8801 35.1749C6.42601 44.1786 -0.29163 47.4846 3.0955 59.6682C5.6626 68.9022 9.17249 81.2694 16.7784 87.6266C24.8178 94.3461 36.5325 98.7049 47.0183 97.3008C57.7979 95.8574 66.9692 89.2691 73.5663 80.8773C82.0336 70.1065 82.4039 60.5992 79.5991 47.6036C79.0119 44.883 74.8398 46.0343 75.4267 48.7538Z" fill="#710FD8"/>
<path d="M40.6882 16.462C40.7168 18.7907 40.6205 21.1107 40.3989 23.429C40.2875 24.5938 41.4729 25.5925 42.5623 25.5925C43.825 25.5925 44.6142 24.5971 44.7258 23.429C44.9474 21.1107 45.0438 18.7907 45.0152 16.462C44.981 13.6797 40.654 13.6721 40.6882 16.462Z" fill="#710FD8"/>
<path d="M42.6045 26.0775C45.3887 26.0775 45.3933 21.7505 42.6045 21.7505C39.8203 21.7505 39.8157 26.0775 42.6045 26.0775Z" fill="#710FD8"/>
<path d="M0.537387 58.7723C3.43595 58.7187 6.31869 58.8569 9.19876 59.1875C11.9603 59.5046 11.9376 55.1751 9.19876 54.8606C6.31862 54.53 3.43588 54.3918 0.537387 54.4454C-2.24361 54.4968 -2.25266 58.8239 0.537387 58.7723Z" fill="#710FD8"/>
<path d="M40.1782 90.5017C40.2943 93.1525 40.2425 95.7946 40.0226 98.4388C39.7918 101.214 44.12 101.198 44.3495 98.4388C44.5694 95.7945 44.6212 93.1525 44.5051 90.5017C44.3836 87.7281 40.056 87.713 40.1782 90.5017Z" fill="#710FD8"/>
<path d="M74.8128 59.1447C77.2993 59.2156 79.7858 59.2866 82.2723 59.3575C85.0577 59.437 85.0554 55.11 82.2723 55.0306C79.7858 54.9596 77.2993 54.8887 74.8128 54.8177C72.0274 54.7383 72.0297 59.0652 74.8128 59.1447Z" fill="#710FD8"/>
<path d="M84.7945 2.18189C85.457 4.96906 86.0051 7.76047 86.4457 10.5906C86.5997 11.5797 87.6569 12.0982 88.5319 12.179C92.1653 12.5142 95.7987 12.8494 99.432 13.1847C98.7367 12.2718 98.0413 11.3589 97.3459 10.4461C96.8771 13.714 91.6015 15.8916 89.6714 18.447C88.8207 19.5733 88.0769 21.4084 87.0141 22.3051C85.7384 23.3813 80.7962 23.8186 79.0672 23.1907C78.1392 24.4934 77.8606 24.1367 78.2314 22.1205C78.1836 20.8972 78.1358 19.674 78.088 18.4508C78.0253 16.8465 77.6305 14.9638 77.9175 13.4C78.7444 8.89477 84.4277 6.13414 88.0299 4.02333C90.4311 2.61629 88.256 -1.12502 85.846 0.287155C81.7599 2.68152 74.8935 6.34746 73.7842 11.4586C73.0582 14.8041 73.7308 18.7254 73.9045 22.1205C74.0055 24.0967 73.8377 25.9296 75.6845 27.061C77.7285 28.3132 82.1229 27.7592 84.4082 27.6064C86.8555 27.4428 88.806 26.695 90.4867 24.8717C91.3641 23.9199 91.912 22.7566 92.6599 21.7146C94.0871 19.7261 95.7794 18.5723 97.6696 17.0614C99.5781 15.5359 101.157 14.1114 101.518 11.5963C101.73 10.1197 100.96 8.9987 99.432 8.85773C95.7987 8.5225 92.1653 8.18728 88.5319 7.85205C89.2273 8.38149 89.9227 8.91093 90.6181 9.44038C90.1774 6.60965 89.6292 3.81824 88.9669 1.03162C88.3232 -1.67631 84.1499 -0.529843 84.7945 2.18189Z" fill="#710FD8"/>
<path d="M75.1625 23.5065C62.1642 32.8448 53.5416 46.6851 40.9092 56.4098C38.7334 58.0848 40.8858 61.8452 43.0931 60.146C55.7244 50.4221 64.3847 36.5547 77.3464 27.2427C79.5878 25.6324 77.4299 21.8776 75.1625 23.5065Z" fill="#710FD8"/>
</g>
<defs>
<clipPath id="clip0_69_208">
<rect width="100" height="100" fill="white"/>
</clipPath>
</defs>
</svg>
