<svg width="100" height="100" viewBox="0 0 100 100" fill="none" xmlns="http://www.w3.org/2000/svg">
<g clip-path="url(#clip0_164_1051)">
<path d="M98.0779 89.9688C97.4382 87.1564 96.1011 84.5502 94.1897 82.3904C92.2783 80.2305 89.8541 78.5863 87.1404 77.6094C91.0623 74.4844 90.6404 70.5781 90.6404 67.1875C90.6404 64.7011 89.6527 62.3165 87.8945 60.5584C86.1364 58.8002 83.7518 57.8125 81.2654 57.8125C78.779 57.8125 76.3944 58.8002 74.6363 60.5584C72.8781 62.3165 71.8904 64.7011 71.8904 67.1875C71.8904 70.6875 71.4685 74.4375 75.3748 77.5937C71.9281 78.8303 68.9702 81.1419 66.9373 84.1875C65.8787 81.9558 64.3895 79.9553 62.5554 78.3008C60.7213 76.6464 58.5784 75.3706 56.2498 74.5469C61.2654 70.9844 60.9373 66.2031 60.9373 62.5C60.9373 59.5992 59.7849 56.8172 57.7338 54.766C55.6826 52.7148 52.9006 51.5625 49.9998 51.5625C47.099 51.5625 44.317 52.7148 42.2658 54.766C40.2146 56.8172 39.0623 59.5992 39.0623 62.5C39.0623 65.9688 38.531 70.875 43.7498 74.5469C41.4299 75.3813 39.2973 76.6651 37.4741 78.3247C35.6509 79.9843 34.1729 81.9872 33.1248 84.2188C31.101 81.1612 28.1405 78.8421 24.6873 77.6094C28.6091 74.4844 28.1873 70.5781 28.1873 67.1875C28.1873 64.6928 27.1963 62.3003 25.4322 60.5363C23.6682 58.7723 21.2757 57.7812 18.781 57.7812C16.2863 57.7812 13.8938 58.7723 12.1298 60.5363C10.3658 62.3003 9.37477 64.6928 9.37477 67.1875C9.37477 70.75 8.96852 74.4375 12.8435 77.5937C10.128 78.5721 7.70251 80.2187 5.79097 82.3814C3.87943 84.5442 2.54336 87.1536 1.90602 89.9688L-0.000226033 98.0937C-0.0913942 98.5081 -0.0142083 98.9418 0.214352 99.2993C0.442912 99.6568 0.804123 99.9088 1.21852 100C1.63292 100.091 2.06657 100.014 2.42406 99.7854C2.78155 99.5569 3.03361 99.1957 3.12477 98.7813L4.9529 90.625C5.63264 87.7288 7.20754 85.1203 9.45395 83.1699C11.7004 81.2196 14.5041 80.0266 17.4671 79.7602C20.4301 79.4938 23.4017 80.1677 25.96 81.686C28.5182 83.2044 30.5331 85.4902 31.7185 88.2187C31.6091 88.7031 32.0467 86.4844 29.7185 98.125C29.6356 98.5394 29.7208 98.9698 29.9552 99.3214C30.1896 99.673 30.5541 99.9171 30.9685 100C31.3829 100.083 31.8133 99.9977 32.1649 99.7633C32.5165 99.5289 32.7606 99.1644 32.8435 98.75L34.7185 89.0625C35.4649 85.5633 37.3896 82.4262 40.1709 80.1756C42.9523 77.9249 46.4219 76.697 49.9998 76.697C53.5777 76.697 57.0472 77.9249 59.8286 80.1756C62.61 82.4262 64.5347 85.5633 65.281 89.0625L67.1873 98.75C67.2702 99.1644 67.5143 99.5289 67.8659 99.7633C68.2175 99.9977 68.6479 100.083 69.0623 100C69.4767 99.9171 69.8412 99.673 70.0756 99.3214C70.31 98.9698 70.3952 98.5394 70.3123 98.125C67.9373 86.2656 68.406 88.6406 68.3279 88.2344C73.7654 75.5781 92.0779 77.5156 95.0779 90.6563L96.9529 98.7813C97.0546 99.1743 97.3052 99.5123 97.6518 99.7237C97.9983 99.9352 98.4135 100.003 98.8095 99.9141C99.2055 99.8247 99.5512 99.5848 99.7733 99.245C99.9955 98.9052 100.077 98.4923 99.9998 98.0937L98.0779 89.9688ZM12.4998 70.3125V67.1875C12.4998 65.5299 13.1583 63.9402 14.3304 62.7681C15.5025 61.596 17.0922 60.9375 18.7498 60.9375C20.4074 60.9375 21.9971 61.596 23.1692 62.7681C24.3413 63.9402 24.9998 65.5299 24.9998 67.1875V70.3125C24.9998 71.9701 24.3413 73.5598 23.1692 74.7319C21.9971 75.904 20.4074 76.5625 18.7498 76.5625C17.0922 76.5625 15.5025 75.904 14.3304 74.7319C13.1583 73.5598 12.4998 71.9701 12.4998 70.3125ZM42.1873 65.625V62.5C42.1873 60.428 43.0104 58.4409 44.4755 56.9757C45.9406 55.5106 47.9278 54.6875 49.9998 54.6875C52.0718 54.6875 54.0589 55.5106 55.524 56.9757C56.9892 58.4409 57.8123 60.428 57.8123 62.5V65.625C57.8123 67.697 56.9892 69.6841 55.524 71.1493C54.0589 72.6144 52.0718 73.4375 49.9998 73.4375C47.9278 73.4375 45.9406 72.6144 44.4755 71.1493C43.0104 69.6841 42.1873 67.697 42.1873 65.625ZM74.9998 70.3125V67.1875C74.9998 65.5299 75.6583 63.9402 76.8304 62.7681C78.0025 61.596 79.5922 60.9375 81.2498 60.9375C82.9074 60.9375 84.4971 61.596 85.6692 62.7681C86.8413 63.9402 87.4998 65.5299 87.4998 67.1875V70.3125C87.4998 71.9701 86.8413 73.5598 85.6692 74.7319C84.4971 75.904 82.9074 76.5625 81.2498 76.5625C79.5922 76.5625 78.0025 75.904 76.8304 74.7319C75.6583 73.5598 74.9998 71.9701 74.9998 70.3125Z" fill="#710FD8"/>
<path d="M93.75 0H6.25C4.5924 0 3.00269 0.65848 1.83058 1.83058C0.65848 3.00269 0 4.5924 0 6.25L0 28.125C0 29.7826 0.65848 31.3723 1.83058 32.5444C3.00269 33.7165 4.5924 34.375 6.25 34.375H42.8438L48.6406 44.5312C48.7769 44.7717 48.9745 44.9717 49.2133 45.1109C49.4522 45.25 49.7236 45.3234 50 45.3234C50.2764 45.3234 50.5479 45.25 50.7867 45.1109C51.0255 44.9717 51.2231 44.7717 51.3594 44.5312L57.1563 34.375H93.75C95.4076 34.375 96.9973 33.7165 98.1694 32.5444C99.3415 31.3723 100 29.7826 100 28.125V6.25C100 4.5924 99.3415 3.00269 98.1694 1.83058C96.9973 0.65848 95.4076 0 93.75 0ZM96.875 28.125C96.875 28.9538 96.5458 29.7487 95.9597 30.3347C95.3737 30.9208 94.5788 31.25 93.75 31.25H56.25C55.0313 31.25 55.2656 31.3906 50 40.625C44.7344 31.4219 44.9687 31.25 43.75 31.25H6.25C5.4212 31.25 4.62634 30.9208 4.04029 30.3347C3.45424 29.7487 3.125 28.9538 3.125 28.125V6.25C3.125 5.4212 3.45424 4.62634 4.04029 4.04029C4.62634 3.45424 5.4212 3.125 6.25 3.125H93.75C94.5788 3.125 95.3737 3.45424 95.9597 4.04029C96.5458 4.62634 96.875 5.4212 96.875 6.25V28.125Z" fill="#710FD8"/>
<path d="M49.9999 9.00021C42.1092 3.68771 30.3749 16.9221 49.2967 26.3908C49.5148 26.5007 49.7556 26.558 49.9999 26.558C50.2441 26.558 50.4849 26.5007 50.703 26.3908C69.4999 16.9846 57.9999 3.60959 49.9999 9.00021ZM49.9999 23.2346C35.5467 15.219 44.9374 8.07834 48.8905 12.1096C49.0357 12.256 49.2085 12.3723 49.3989 12.4516C49.5894 12.5309 49.7936 12.5718 49.9999 12.5718C50.2061 12.5718 50.4103 12.5309 50.6007 12.4516C50.7912 12.3723 50.964 12.256 51.1092 12.1096C55.078 8.07834 64.4686 15.2033 49.9999 23.2346Z" fill="#710FD8"/>
<path d="M26.8905 13.7969L22.0155 13.1251L19.8593 8.68757C19.7313 8.4234 19.5316 8.20061 19.2829 8.04472C19.0342 7.88883 18.7466 7.80615 18.453 7.80615C18.1595 7.80615 17.8719 7.88883 17.6232 8.04472C17.3745 8.20061 17.1747 8.4234 17.0468 8.68757L14.8905 13.1251C10.453 13.7344 9.18742 13.547 8.74992 14.8595C8.31242 16.172 9.10929 16.422 12.703 19.8751C11.8905 24.422 11.3749 25.4688 12.453 26.2657C13.5312 27.0626 14.0155 26.4063 18.453 24.0626C23.0155 26.5626 22.9687 26.5626 23.5312 26.5626C23.7608 26.5659 23.9883 26.5186 24.1975 26.4241C24.4067 26.3295 24.5925 26.19 24.7417 26.0154C24.8909 25.8409 24.9998 25.6356 25.0606 25.4142C25.1214 25.1928 25.1327 24.9607 25.0937 24.7344L24.2343 19.8751L27.7812 16.4688C27.9925 16.264 28.1416 16.0036 28.2114 15.7177C28.2813 15.4319 28.2689 15.1321 28.1759 14.8529C28.0828 14.5737 27.9128 14.3265 27.6854 14.1397C27.458 13.9528 27.1825 13.834 26.8905 13.7969ZM21.4218 22.1094C17.9843 20.2657 18.9374 20.2657 15.4843 22.1094C16.1562 18.2657 16.4374 19.1407 13.6405 16.4532C17.5155 15.9063 16.7655 16.4532 18.453 12.9532C20.1562 16.4532 19.4062 15.9063 23.2655 16.4532C20.4374 19.1719 20.7499 18.2813 21.4218 22.1094Z" fill="#710FD8"/>
<path d="M85.9375 14.0625H84.8125L85.1406 12.7813C85.2848 12.191 85.2932 11.5758 85.1652 10.9819C85.0372 10.3879 84.776 9.83082 84.4015 9.35244C84.0269 8.87407 83.5486 8.48694 83.0028 8.22019C82.4569 7.95345 81.8576 7.81405 81.25 7.8125C79.9844 7.8125 79.9687 8.4375 77.2187 13.9375C76.9647 14.4728 76.7859 15.0407 76.6875 15.625H71.875C71.4606 15.625 71.0632 15.7896 70.7701 16.0826C70.4771 16.3757 70.3125 16.7731 70.3125 17.1875V25C70.3125 25.4144 70.4771 25.8118 70.7701 26.1049C71.0632 26.3979 71.4606 26.5625 71.875 26.5625H83.9375C84.9099 26.5662 85.8595 26.2675 86.6545 25.7076C87.4496 25.1477 88.0509 24.3543 88.375 23.4375C89.0042 21.4178 89.2376 19.2957 89.0625 17.1875C89.0625 16.3587 88.7333 15.5638 88.1472 14.9778C87.5612 14.3917 86.7663 14.0625 85.9375 14.0625ZM73.4375 18.75H76.5625V23.4375H73.4375V18.75ZM83.9375 23.4375H79.6875C79.6875 14.5 79.1406 17.0781 82 11.3594C82.5938 12.3437 80.5312 15.25 81.5781 16.5937C82.1875 17.3594 82.7344 17.1875 85.9375 17.1875C85.9375 19.4219 86.1875 23.4375 83.9375 23.4375Z" fill="#710FD8"/>
</g>
<defs>
<clipPath id="clip0_164_1051">
<rect width="100" height="100" fill="white"/>
</clipPath>
</defs>
</svg>
