<svg width="564" height="401" viewBox="0 0 564 401" fill="none" xmlns="http://www.w3.org/2000/svg">
<g clip-path="url(#clip0_109_557)">
<path d="M440.094 395.808C430.478 396.656 420.992 393.118 414.28 386.181C409.947 381.613 406.973 375.733 404.097 370.048C403.26 368.393 402.394 366.682 401.514 365.042C399.506 361.384 399.926 356.873 402.574 353.648C405.112 350.425 409.356 349.069 413.294 350.224L413.713 350.346L417.49 365.08C418.054 362.882 419.263 357.93 420.027 353.079L420.091 352.673L420.467 352.84C424.411 354.585 428.119 356.819 431.505 359.49C443.643 369.224 450.884 383.804 451.304 399.355L451.314 399.813L440.094 395.808Z" fill="#F2F2F2"/>
<path d="M563.214 400.798L379.928 401C379.496 400.998 379.147 400.645 379.149 400.213C379.152 399.784 379.499 399.437 379.928 399.434L563.214 399.232C563.647 399.231 563.998 399.58 564 400.013C564.001 400.445 563.652 400.796 563.219 400.798H563.214Z" fill="#CACACA"/>
<path d="M77.1882 73.3014H70.3399C68.978 73.3014 67.8739 74.4052 67.8739 75.7668C67.8739 77.1284 66.7699 78.2322 65.4079 78.2322H42.5765C41.2146 78.2322 40.1105 77.1284 40.1105 75.7668L39.6591 73.2675L35.5205 67.9925C35.2458 67.6367 34.8202 67.43 34.3705 67.434H26.6092C25.8024 67.435 25.1486 68.0886 25.1476 68.8952L24.9874 73.2675H22.0532C19.4614 73.2675 17.3604 75.3681 17.3604 77.9593V108.517C17.3604 110.816 19.2249 112.68 21.5249 112.68H77.1882C79.4869 112.678 81.3494 110.815 81.3516 108.517V77.4638C81.3516 75.1649 79.4876 73.3014 77.1882 73.3014Z" fill="#F2F2F2"/>
<path d="M39.6612 73.1546H25.1475V68.7823C25.1484 67.9757 25.8022 67.3221 26.609 67.3211H34.3703C34.82 67.317 35.2456 67.5238 35.5203 67.8796L39.6612 73.1546Z" fill="#E6E6E6"/>
<path d="M47.0934 109.318H22.8593C21.262 109.316 19.9676 108.022 19.9658 106.425V99.7989C19.9676 98.202 21.262 96.9079 22.8593 96.9061H51.9459C53.5432 96.9079 54.8376 98.202 54.8393 99.7989V101.574C54.8345 105.849 51.3693 109.313 47.0934 109.318Z" fill="white"/>
<path d="M29.8352 101.904H23.8537C23.0434 101.907 22.3844 101.252 22.3818 100.442C22.3792 99.632 23.034 98.9732 23.8443 98.9706H29.8352C30.6455 98.968 31.3045 99.6226 31.3071 100.433C31.3097 101.243 30.6549 101.902 29.8446 101.904H29.8352Z" fill="#F2F2F2"/>
<path d="M50.1499 106.53H23.8537C23.0434 106.533 22.3844 105.878 22.3818 105.068C22.3792 104.258 23.034 103.599 23.8443 103.597H50.1499C50.9602 103.594 51.6192 104.249 51.6218 105.059C51.6244 105.869 50.9696 106.528 50.1593 106.53H50.1499Z" fill="#F2F2F2"/>
<path d="M77.1882 169.279H70.3399C68.978 169.279 67.8739 170.383 67.8739 171.744C67.8739 173.106 66.7699 174.21 65.4079 174.21H42.5765C41.2146 174.21 40.1105 173.106 40.1105 171.744L39.6591 169.245L35.5205 163.97C35.2458 163.614 34.8202 163.407 34.3705 163.411H26.6092C25.8024 163.412 25.1486 164.066 25.1476 164.873L24.9874 169.245H22.0532C19.4614 169.245 17.3604 171.345 17.3604 173.937V204.494C17.3604 206.794 19.2249 208.658 21.5249 208.658H77.1882C79.4869 208.655 81.3494 206.792 81.3516 204.494V173.441C81.3516 171.142 79.4876 169.279 77.1882 169.279Z" fill="#F2F2F2"/>
<path d="M39.6612 169.132H25.1475V164.76C25.1484 163.953 25.8022 163.299 26.609 163.298H34.3703C34.82 163.294 35.2456 163.501 35.5203 163.857L39.6612 169.132Z" fill="#E6E6E6"/>
<path d="M47.0934 205.295H22.8593C21.262 205.293 19.9676 203.999 19.9658 202.402V195.776C19.9676 194.179 21.262 192.885 22.8593 192.884H51.9459C53.5432 192.885 54.8376 194.179 54.8393 195.776V197.551C54.8345 201.826 51.3693 205.29 47.0934 205.295Z" fill="white"/>
<path d="M29.8352 197.882H23.8537C23.0434 197.884 22.3844 197.23 22.3818 196.42C22.3792 195.609 23.034 194.951 23.8443 194.948H29.8352C30.6455 194.945 31.3045 195.6 31.3071 196.41C31.3097 197.22 30.6549 197.879 29.8446 197.882H29.8352Z" fill="#F2F2F2"/>
<path d="M50.1499 202.508H23.8537C23.0434 202.51 22.3844 201.856 22.3818 201.046C22.3792 200.236 23.034 199.577 23.8443 199.574H50.1499C50.9602 199.572 51.6192 200.226 51.6218 201.036C51.6244 201.846 50.9696 202.505 50.1593 202.508H50.1499Z" fill="#F2F2F2"/>
<path d="M77.1882 265.256H70.3399C68.978 265.256 67.8739 266.36 67.8739 267.721C67.8739 269.083 66.7699 270.187 65.4079 270.187H42.5765C41.2146 270.187 40.1105 269.083 40.1105 267.721L39.6591 265.222L35.5205 259.947C35.2458 259.591 34.8202 259.385 34.3705 259.389H26.6092C25.8024 259.39 25.1486 260.043 25.1476 260.85L24.9874 265.222H22.0532C19.4614 265.222 17.3604 267.323 17.3604 269.914V300.471C17.3603 302.771 19.2249 304.635 21.5248 304.635H77.1882C79.4869 304.632 81.3494 302.77 81.3516 300.471V269.418C81.3516 267.12 79.4876 265.256 77.1882 265.256Z" fill="#F2F2F2"/>
<path d="M39.6612 265.109H25.1475V260.737C25.1484 259.93 25.8022 259.277 26.609 259.276H34.3703C34.82 259.272 35.2456 259.478 35.5203 259.834L39.6612 265.109Z" fill="#E6E6E6"/>
<path d="M47.0934 301.273H22.8593C21.262 301.271 19.9676 299.977 19.9658 298.38V291.754C19.9676 290.157 21.262 288.863 22.8593 288.861H51.9459C53.5432 288.863 54.8376 290.157 54.8393 291.754V293.528C54.8345 297.803 51.3694 301.268 47.0934 301.273Z" fill="white"/>
<path d="M29.8345 293.859H23.8529C23.0426 293.859 22.3857 293.202 22.3857 292.392C22.3857 291.582 23.0426 290.925 23.8529 290.925H29.8345C30.6448 290.925 31.3016 291.582 31.3016 292.392C31.3016 293.202 30.6448 293.859 29.8345 293.859Z" fill="#F2F2F2"/>
<path d="M50.1491 298.485H23.8529C23.0426 298.485 22.3857 297.828 22.3857 297.018C22.3857 296.208 23.0426 295.552 23.8529 295.552H50.1491C50.9594 295.552 51.6163 296.208 51.6163 297.018C51.6163 297.828 50.9594 298.485 50.1491 298.485Z" fill="#F2F2F2"/>
<path d="M201.132 89.672C198.897 89.6745 197.086 91.4852 197.084 93.7194V164.645C197.086 166.879 198.897 168.69 201.132 168.692H301.476C303.711 168.69 305.522 166.879 305.525 164.645V93.7194C305.522 91.4852 303.711 89.6745 301.476 89.672H201.132Z" fill="#E6E6E6"/>
<path d="M265.388 165.24H203.967C201.562 165.238 199.613 163.289 199.61 160.884V96.5558C199.613 94.1511 201.562 92.2023 203.967 92.1996H298.641C301.047 92.2023 302.996 94.151 302.999 96.5558V127.639C302.975 148.396 286.15 165.217 265.388 165.24Z" fill="white"/>
<path d="M241.328 110.002H226.733C225.963 110.002 225.339 109.378 225.339 108.608C225.339 107.839 225.963 107.215 226.733 107.215H241.328C242.098 107.215 242.722 107.839 242.722 108.608C242.722 109.378 242.098 110.002 241.328 110.002Z" fill="#710FD8"/>
<path d="M274.047 115.701H226.733C225.963 115.701 225.339 115.078 225.339 114.308C225.339 113.538 225.963 112.914 226.733 112.914H274.047C274.817 112.914 275.441 113.538 275.441 114.308C275.441 115.078 274.817 115.701 274.047 115.701Z" fill="#E6E6E6"/>
<path d="M274.047 122.244H226.733C225.963 122.244 225.339 121.62 225.339 120.85C225.339 120.081 225.963 119.457 226.733 119.457H274.047C274.817 119.457 275.441 120.081 275.441 120.85C275.441 121.62 274.817 122.244 274.047 122.244Z" fill="#E6E6E6"/>
<path d="M274.047 128.786H226.733C225.963 128.786 225.339 128.162 225.339 127.393C225.339 126.623 225.963 125.999 226.733 125.999H274.047C274.817 125.999 275.441 126.623 275.441 127.393C275.441 128.162 274.817 128.786 274.047 128.786Z" fill="#E6E6E6"/>
<path d="M274.047 135.328H226.733C225.963 135.328 225.339 134.704 225.339 133.935C225.339 133.165 225.963 132.541 226.733 132.541H274.047C274.817 132.541 275.441 133.165 275.441 133.935C275.441 134.704 274.817 135.328 274.047 135.328Z" fill="#E6E6E6"/>
<path d="M311.984 139.19H292.177C288.238 139.19 285.045 142.383 285.045 146.321C285.045 150.259 281.851 153.452 277.912 153.452H211.877C207.938 153.452 204.745 150.259 204.745 146.321L203.439 139.092L191.469 123.836C190.674 122.806 189.443 122.209 188.143 122.22H165.695C163.361 122.223 161.47 124.114 161.468 126.446L161.004 139.092H152.517C145.021 139.092 138.944 145.168 138.944 152.662V241.044C138.944 247.695 144.337 253.086 150.989 253.086H311.984C318.633 253.078 324.02 247.691 324.026 241.044V151.229C324.026 144.58 318.635 139.19 311.984 139.19Z" fill="#E6E6E6"/>
<path d="M203.446 138.766H161.468V126.12C161.471 123.787 163.362 121.897 165.695 121.894H188.143C189.444 121.882 190.675 122.48 191.469 123.509L203.446 138.766Z" fill="#CCCCCC"/>
<path d="M224.94 243.361H154.847C150.227 243.356 146.484 239.613 146.479 234.994V215.829C146.484 211.211 150.227 207.468 154.847 207.463H238.974C243.594 207.468 247.338 211.211 247.343 215.829V220.962C247.329 233.327 237.307 243.347 224.94 243.361Z" fill="white"/>
<path d="M175.023 221.919H157.723C155.379 221.919 153.479 220.019 153.479 217.676C153.479 215.333 155.379 213.434 157.723 213.434H175.023C177.367 213.431 179.269 215.328 179.272 217.671C179.275 220.014 177.378 221.916 175.034 221.919H175.023Z" fill="#710FD8"/>
<path d="M233.779 235.299H157.723C155.379 235.299 153.479 233.4 153.479 231.056C153.479 228.713 155.379 226.814 157.723 226.814H233.779C236.123 226.811 238.025 228.708 238.028 231.051C238.031 233.394 236.134 235.296 233.79 235.299L233.779 235.299Z" fill="#710FD8"/>
<path d="M374.831 28.115H1.16276C0.506705 28.1009 -0.0137481 27.5579 0.000276928 26.902C0.0138812 26.2658 0.526464 25.7533 1.16276 25.7397H374.831C375.488 25.7538 376.008 26.2968 375.994 26.9527C375.98 27.5889 375.468 28.1014 374.831 28.115Z" fill="#CACACA"/>
<path d="M519.779 392.401H513.61L510.676 368.614L519.78 368.614L519.779 392.401Z" fill="#9E616A"/>
<path d="M519.996 398.835L501.027 398.835V398.595C501.028 394.518 504.333 391.214 508.411 391.213L511.876 388.585L518.341 391.214L519.997 391.214L519.996 398.835Z" fill="#2F2E41"/>
<path d="M500.73 371.024L494.824 372.804L485.146 350.875L493.863 348.249L500.73 371.024Z" fill="#9E616A"/>
<path d="M502.796 377.121L484.634 382.595L484.565 382.365C483.388 378.462 485.599 374.344 489.503 373.167L492.062 369.651L499.011 370.302L500.596 369.824L502.796 377.121Z" fill="#2F2E41"/>
<path d="M492.26 241.686C492.26 241.686 485.661 251.758 483.326 258.61C477.604 275.402 474.868 271.374 468.279 312.201C477.219 342.359 486.072 362.24 486.072 362.24C486.072 362.24 499.377 358.499 499.377 356.004C499.377 353.51 490.888 323.096 489.641 319.563C488.394 316.03 486.315 314.783 488.186 311.873C490.057 308.963 505.426 283.525 505.426 283.525C505.426 283.525 505.01 326.883 505.426 327.715C505.841 328.546 507.841 378.476 507.841 378.476C507.841 378.476 521.524 385.478 522.353 378.015C522.561 376.145 522.823 326.666 522.823 325.835C522.823 325.003 535.49 247.537 529.461 244.419C523.432 241.301 492.26 241.686 492.26 241.686Z" fill="#2F2E41"/>
<path d="M464.608 248.864C464.96 245.692 467.818 243.405 470.991 243.757C471.33 243.795 471.664 243.862 471.991 243.958L483.944 227.254L487.773 237.217L475.835 251.552C474.724 254.564 471.382 256.105 468.37 254.995C465.85 254.066 464.295 251.531 464.608 248.864Z" fill="#9E616A"/>
<path d="M481.094 246.276L473.146 240.25L489.832 214.563L503.234 162.944L513.845 172.822C515.682 173.389 517.201 174.692 518.04 176.421C518.893 178.163 520.706 175.246 520.028 177.063L505.102 217.356L505.081 217.384L481.094 246.276Z" fill="#3F3D56"/>
<path d="M509.187 160.829L497.883 165.221L493.237 171.638L481.974 229.391L482.422 231.34L481.3 232.843L480.86 235.102L481.952 236.981L480.034 239.336C480.034 239.336 480.541 241.212 482.422 257.196C483.582 267.058 502.358 260.983 502.358 260.983L510.881 173.395L509.187 160.829Z" fill="#3F3D56"/>
<path d="M533.316 168.292L523.563 159.57L509.142 160.439L500.839 170.533L484.736 253.909L518.591 256.73L533.316 168.292Z" fill="#E6E6E6"/>
<path d="M524.768 160.973L533.638 167.781L537.041 172.744C543.004 176.153 545.76 183.273 543.647 189.807L532.873 227.777L532.621 228.553C532.365 229.305 533.592 235.259 532.981 241.671C532.822 243.342 534.761 245.204 534.615 246.854C534.501 248.144 532.299 249.241 532.202 250.426C532.114 251.495 533.273 252.513 533.205 253.435C533.03 255.232 532.54 256.984 531.757 258.61C522.579 262.406 504.855 259.652 504.855 259.652L520.915 173.128L524.768 160.973Z" fill="#3F3D56"/>
<path d="M514.852 156.214C523.669 156.214 530.816 149.068 530.816 140.252C530.816 131.437 523.669 124.291 514.852 124.291C506.034 124.291 498.887 131.437 498.887 140.252C498.887 149.068 506.034 156.214 514.852 156.214Z" fill="#9E616A"/>
<path d="M535.552 140.935C534.625 146.181 530.878 151.371 525.644 152.368L525.546 152.236C525.837 149.962 525.964 147.67 525.926 145.377C525.906 143.908 524.699 142.733 523.229 142.753C522.133 142.767 521.158 143.453 520.773 144.479C520.867 142.481 520.021 140.441 519.475 138.514C518.93 136.591 518.558 134.767 516.659 134.137C515.074 133.615 513.348 133.977 511.722 134.349C509.474 134.856 508.331 134.739 508.129 134.17C507.298 134.474 506.466 134.778 505.634 135.081C504.988 135.316 504.264 135.094 503.862 134.537L503.855 134.527C502.402 134.903 500.949 135.276 499.496 135.646C499.22 134.716 498.996 133.771 498.824 132.816C500.068 131.8 500.959 130.416 501.368 128.863C500.497 129.364 499.553 129.725 498.57 129.935C498.501 127.707 499.471 125.575 501.194 124.162C504.631 121.402 508.077 119.71 512.479 119.931C517.801 120.199 519.395 125.925 524.234 123.692C530.346 120.871 536.478 135.688 535.552 140.935Z" fill="#2F2E41"/>
<path d="M446.053 150.666C444.655 149.542 442.611 149.761 441.484 151.156L405.743 195.482C404.618 196.879 404.838 198.923 406.233 200.05L468.945 250.593C470.343 251.717 472.387 251.498 473.514 250.103L509.255 205.777C510.38 204.379 510.16 202.336 508.765 201.208L446.053 150.666Z" fill="#CCCCCC"/>
<path d="M448.13 230.259L409.744 199.321C408.243 198.108 408.006 195.908 409.217 194.404L441.633 154.201C442.846 152.7 445.047 152.464 446.551 153.673L505.719 201.36C507.221 202.573 507.457 204.773 506.247 206.277L490.584 225.703C480.109 238.663 461.118 240.702 448.13 230.259Z" fill="white"/>
<path d="M460.93 183.618L451.808 176.266C451.325 175.88 451.247 175.176 451.633 174.694C452.019 174.211 452.723 174.133 453.205 174.519L453.212 174.524L462.334 181.876C462.814 182.266 462.887 182.97 462.497 183.45C462.109 183.926 461.41 184.001 460.93 183.618Z" fill="#710FD8"/>
<path d="M478.506 203.66L448.936 179.828C448.453 179.442 448.375 178.738 448.761 178.256C449.147 177.773 449.851 177.695 450.333 178.081L450.34 178.086L479.91 201.918C480.39 202.308 480.463 203.012 480.073 203.492C479.685 203.969 478.986 204.044 478.506 203.66Z" fill="#E6E6E6"/>
<path d="M475.209 207.749L445.639 183.917C445.156 183.531 445.078 182.827 445.464 182.345C445.85 181.862 446.554 181.784 447.036 182.169L447.043 182.175L476.613 206.007C477.093 206.397 477.166 207.101 476.776 207.581C476.388 208.057 475.689 208.132 475.209 207.749Z" fill="#E6E6E6"/>
<path d="M471.912 211.837L442.342 188.005C441.859 187.62 441.781 186.916 442.167 186.433C442.553 185.951 443.257 185.872 443.74 186.258L443.746 186.264L473.316 210.096C473.796 210.485 473.869 211.19 473.479 211.669C473.092 212.146 472.392 212.221 471.912 211.837Z" fill="#E6E6E6"/>
<path d="M468.615 215.926L439.045 192.094C438.563 191.708 438.484 191.004 438.87 190.522C439.256 190.039 439.96 189.961 440.443 190.347L440.45 190.352L470.02 214.184C470.499 214.574 470.572 215.279 470.182 215.758C469.795 216.235 469.095 216.31 468.615 215.926Z" fill="#E6E6E6"/>
<path d="M462.177 215.138C464.228 212.691 467.874 212.37 470.321 214.421C470.582 214.639 470.823 214.881 471.041 215.142L490.249 207.854L487.916 218.269L470.034 223.593C467.441 225.485 463.805 224.917 461.912 222.325C460.329 220.156 460.438 217.185 462.177 215.138Z" fill="#9E616A"/>
<path d="M477.336 222.582L474.058 213.164L502.181 201.018L537.127 175.061L541.538 180.505C543.97 183.506 543.508 187.91 540.506 190.341C540.408 190.42 540.308 190.497 540.206 190.571L513.348 211.8L513.314 211.812L504.978 214.307L503.111 214.417L501.119 215.462L499.35 214.887L496.9 216.726L494.087 217.568L477.336 222.582Z" fill="#3F3D56"/>
<path d="M317.493 263.663C307.991 263.663 300.289 255.963 300.289 246.464C300.289 236.965 307.991 229.264 317.493 229.264C326.994 229.264 334.696 236.965 334.696 246.464C334.696 255.963 326.994 263.663 317.493 263.663Z" fill="#25D838"/>
<path d="M324.281 244.767H319.19V239.677C319.19 238.74 318.43 237.981 317.493 237.981C316.556 237.981 315.796 238.74 315.796 239.677V244.767H310.705C309.768 244.767 309.008 245.527 309.008 246.464C309.008 247.401 309.768 248.16 310.705 248.16H315.796V253.25C315.796 254.187 316.556 254.947 317.493 254.947C318.43 254.947 319.19 254.187 319.19 253.25V248.16H324.281C325.218 248.16 325.978 247.401 325.978 246.464C325.978 245.527 325.218 244.767 324.281 244.767Z" fill="white"/>
<path d="M79.8275 120.582C75.2845 120.582 71.6016 116.9 71.6016 112.358C71.6016 107.816 75.2844 104.134 79.8275 104.134C84.3706 104.134 88.0534 107.816 88.0534 112.358C88.0534 116.9 84.3706 120.582 79.8275 120.582Z" fill="#E6E6E6"/>
<path d="M83.0731 111.547H76.5816C76.1335 111.547 75.7703 111.911 75.7705 112.359C75.7707 112.807 76.1337 113.17 76.5816 113.17H83.0731C83.5212 113.17 83.8847 112.807 83.8849 112.359C83.8851 111.911 83.5219 111.547 83.0738 111.547H83.0731Z" fill="white"/>
<path d="M79.8275 215.245C75.2845 215.245 71.6016 211.563 71.6016 207.021C71.6016 202.479 75.2844 198.797 79.8275 198.797C84.3706 198.797 88.0534 202.479 88.0534 207.021C88.0534 211.563 84.3706 215.245 79.8275 215.245Z" fill="#E6E6E6"/>
<path d="M83.0731 206.21H76.5816C76.1335 206.21 75.7703 206.573 75.7705 207.021C75.7707 207.469 76.1337 207.832 76.5816 207.832H83.0731C83.5212 207.832 83.8847 207.469 83.8849 207.021C83.8851 206.573 83.5219 206.21 83.0738 206.21H83.0731Z" fill="white"/>
<path d="M79.8275 309.908C75.2844 309.908 71.6016 306.226 71.6016 301.684C71.6016 297.141 75.2844 293.459 79.8275 293.459C84.3706 293.459 88.0534 297.141 88.0534 301.684C88.0534 306.226 84.3705 309.908 79.8275 309.908Z" fill="#E6E6E6"/>
<path d="M83.0731 300.872H76.5816C76.1335 300.873 75.7703 301.236 75.7705 301.684C75.7707 302.132 76.1337 302.495 76.5816 302.495H83.0731C83.5212 302.495 83.8847 302.132 83.8849 301.684C83.8851 301.236 83.5219 300.873 83.0738 300.872H83.0731Z" fill="white"/>
<path d="M50.5468 11.3662C53.6177 11.3662 56.1073 8.82177 56.1073 5.68309C56.1073 2.5444 53.6177 0 50.5468 0C47.4758 0 44.9863 2.5444 44.9863 5.68309C44.9863 8.82177 47.4758 11.3662 50.5468 11.3662Z" fill="#710FD8"/>
<path d="M69.7558 11.3662C72.8267 11.3662 75.3162 8.82177 75.3162 5.68309C75.3162 2.5444 72.8267 0 69.7558 0C66.6848 0 64.1953 2.5444 64.1953 5.68309C64.1953 8.82177 66.6848 11.3662 69.7558 11.3662Z" fill="#710FD8"/>
<path d="M88.9648 11.3662C92.0357 11.3662 94.5252 8.82177 94.5252 5.68309C94.5252 2.5444 92.0357 0 88.9648 0C85.8938 0 83.4043 2.5444 83.4043 5.68309C83.4043 8.82177 85.8938 11.3662 88.9648 11.3662Z" fill="#710FD8"/>
<path d="M110.868 10.1748C110.697 10.1748 110.526 10.1086 110.397 9.97703L106.646 6.14254C106.395 5.88703 106.395 5.47873 106.646 5.22323L110.397 1.38905C110.652 1.1297 111.069 1.12552 111.327 1.37879C111.587 1.63269 111.591 2.049 111.338 2.30836L108.035 5.68288L111.338 9.05773C111.591 9.31708 111.587 9.7334 111.327 9.9873C111.199 10.1125 111.033 10.1748 110.868 10.1748Z" fill="#710FD8"/>
<path d="M117.172 10.1749C117.006 10.1749 116.84 10.1126 116.712 9.98742C116.453 9.73352 116.448 9.31752 116.702 9.05784L120.004 5.683L116.702 2.30847C116.448 2.04912 116.453 1.6328 116.712 1.3789C116.972 1.12468 117.388 1.1295 117.642 1.38917L121.394 5.22335C121.644 5.47885 121.644 5.88715 121.394 6.14265L117.642 9.97715C117.513 10.1088 117.343 10.1749 117.172 10.1749Z" fill="#710FD8"/>
<path d="M313.451 0.657959H306.474C305.679 0.657959 305.034 1.30218 305.034 2.09762V9.07898C305.034 9.87443 305.679 10.5186 306.474 10.5186H313.451C314.246 10.5186 314.897 9.87443 314.897 9.07898V2.09762C314.897 1.30218 314.246 0.657959 313.451 0.657959Z" fill="#710FD8"/>
<path d="M296.355 0.657959H289.378C288.583 0.657959 287.938 1.30218 287.938 2.09762V9.07898C287.938 9.87443 288.583 10.5186 289.378 10.5186H296.355C297.15 10.5186 297.801 9.87443 297.801 9.07898V2.09762C297.801 1.30218 297.15 0.657959 296.355 0.657959Z" fill="#710FD8"/>
<path d="M329.561 0.986694H322.584C321.789 0.986694 321.145 1.63091 321.145 2.42635V9.40772C321.145 10.2032 321.789 10.8474 322.584 10.8474H329.561C330.357 10.8474 331.007 10.2032 331.007 9.40772V2.42635C331.007 1.63091 330.357 0.986694 329.561 0.986694Z" fill="#710FD8"/>
<path d="M224.407 3.64246H168.642C167.669 3.64246 166.887 4.43132 166.887 5.39768C166.887 6.36405 167.669 7.15287 168.642 7.15287H224.407C225.374 7.15287 226.163 6.36401 226.163 5.39768C226.163 4.43136 225.374 3.64246 224.407 3.64246Z" fill="#710FD8"/>
</g>
<defs>
<clipPath id="clip0_109_557">
<rect width="564" height="401" fill="white"/>
</clipPath>
</defs>
</svg>
