<svg width="511" height="455" viewBox="0 0 511 455" fill="none" xmlns="http://www.w3.org/2000/svg">
<g clip-path="url(#clip0_109_520)">
<path d="M58.6105 455L58.1658 454.835C43.1016 449.155 31.2994 437.138 25.8945 421.977C24.4301 417.764 23.5022 413.383 23.1328 408.938L23.0965 408.513L23.5156 408.588C28.5184 409.486 33.7702 409.982 36.1101 410.176L22.9824 401.492L23.0061 401.041C23.2105 396.802 25.9746 393.113 29.987 391.725C34.0376 390.23 38.5909 391.349 41.4869 394.55C42.792 395.966 44.1718 397.392 45.506 398.771C50.0911 403.508 54.8323 408.406 57.8303 414.189C62.339 423.099 62.5838 433.567 58.4963 442.678L58.6105 455Z" fill="#F2F2F2"/>
<path d="M324.232 446.585L324.227 446.538C323.646 433.658 321.282 420.921 317.202 408.69L317.198 408.67C316.96 407.414 317.029 406.119 317.4 404.895C318.539 401.388 322.073 399.241 325.712 399.845C329.471 400.551 333.359 399.888 336.671 397.975C338.774 396.755 341.326 396.586 343.572 397.518C345.689 398.381 347.274 400.195 347.843 402.409C347.887 402.583 347.926 402.759 347.96 402.937C348.079 415.878 350.457 428.699 354.986 440.822L354.989 440.837C355.463 443.341 354.707 445.92 352.956 447.771C351.409 449.341 349.241 450.138 347.045 449.943C343.103 449.674 339.049 450.473 334.651 452.387C333.115 453.071 331.387 453.192 329.77 452.73C326.911 451.892 324.769 449.515 324.232 446.585Z" fill="#710FD8"/>
<path d="M198.222 269.655V438.793H316.754V269.655C316.758 267.158 315.132 264.95 312.745 264.213C312.197 264.032 311.623 263.943 311.046 263.949H203.946C200.791 263.943 198.228 266.495 198.222 269.649V269.655ZM244.48 327.772C244.544 320.786 250.261 315.175 257.25 315.239C264.147 315.302 269.723 320.876 269.787 327.772V347.397C269.754 354.383 264.062 360.019 257.073 359.986C250.132 359.953 244.513 354.336 244.48 347.397V327.772Z" fill="#F2F2F2"/>
<path d="M197.858 433.384V449.695C197.864 451.453 199.284 452.879 201.042 452.894H313.933C315.694 452.885 317.117 451.455 317.117 449.695V433.384H197.858Z" fill="#E6E6E6"/>
<path d="M11.7539 14.8261V323.649C11.7604 331.843 18.404 338.485 26.6014 338.491H484.399C492.596 338.485 499.24 331.843 499.247 323.649V14.8261C499.227 6.63952 492.588 0.010385 484.399 0H26.6014C18.4121 0.0104258 11.7734 6.63954 11.7539 14.8261Z" fill="#E6E6E6"/>
<path d="M480.58 10.7195H30.4205C26.0355 10.729 22.4857 14.285 22.4854 18.6685V319.839C22.4929 324.217 26.0411 327.764 30.4205 327.772H480.58C484.959 327.764 488.508 324.217 488.515 319.839V18.6685C488.515 14.285 484.965 10.729 480.58 10.7195ZM367.026 224.688C365.68 227.345 362.951 229.017 359.972 229.01L359.925 229.007C355.609 228.406 351.278 228.01 346.931 227.818C347.605 228.301 348.199 228.889 348.69 229.558C349.952 231.365 350.34 233.641 349.747 235.764C348.764 239.59 348.81 243.72 349.891 248.392C350.283 250.027 350.087 251.747 349.337 253.251C347.992 255.909 345.263 257.581 342.284 257.574L342.236 257.571C331.931 256.136 321.496 255.858 311.129 256.742C311.088 257.004 311.036 257.266 310.969 257.527C309.986 261.352 310.032 265.483 311.113 270.155C311.504 271.79 311.309 273.51 310.559 275.014C309.214 277.672 306.485 279.344 303.505 279.337L303.458 279.334C292.874 277.861 282.156 277.608 271.514 278.582C271.433 281.238 271.709 283.894 272.334 286.477C272.726 288.112 272.53 289.832 271.781 291.337C270.436 293.994 267.707 295.666 264.727 295.659L264.68 295.656C251.906 293.877 238.947 293.877 226.173 295.656H226.153C224.874 295.661 223.612 295.357 222.477 294.769C219.235 293.009 217.768 289.144 219.026 285.678C219.412 284.586 219.699 283.463 219.883 282.32C208.176 280.971 196.345 281.11 184.674 282.734H184.653C183.374 282.739 182.113 282.435 180.977 281.848C177.735 280.088 176.268 276.223 177.526 272.756C178.907 269.19 178.963 265.248 177.686 261.644C177.084 259.954 177.084 258.108 177.685 256.418C168.886 255.97 160.064 256.356 151.338 257.571H151.317C150.039 257.576 148.777 257.272 147.642 256.684C144.4 254.924 142.933 251.059 144.191 247.593C145.571 244.027 145.628 240.085 144.35 236.48C143.534 234.191 143.834 231.651 145.16 229.614C146.395 227.69 148.468 226.464 150.749 226.308C150.929 226.296 151.109 226.29 151.291 226.29C155.762 227.071 160.276 227.581 164.808 227.817C161.917 225.917 160.706 222.283 161.879 219.029C163.259 215.463 163.316 211.521 162.038 207.917C161.223 205.627 161.522 203.088 162.848 201.05C162.906 200.963 162.973 200.885 163.033 200.8C159.808 201.023 156.59 201.357 153.379 201.804H153.358C152.08 201.808 150.818 201.504 149.682 200.917C146.441 199.157 144.974 195.292 146.232 191.825C147.612 188.259 147.669 184.317 146.391 180.713C145.575 178.423 145.875 175.884 147.201 173.847C148.436 171.923 150.509 170.697 152.79 170.541C152.97 170.529 153.15 170.523 153.332 170.523C158.708 171.464 164.145 172.011 169.601 172.16C168.209 170.155 167.867 167.603 168.682 165.302C170.062 161.736 170.119 157.794 168.842 154.19C168.026 151.9 168.325 149.361 169.652 147.323C170.887 145.399 172.96 144.173 175.241 144.018C175.42 144.006 175.6 143.999 175.782 143.999C180.332 144.795 184.926 145.309 189.538 145.539C188.547 143.663 188.386 141.459 189.092 139.459C190.472 135.893 190.529 131.95 189.251 128.346C188.435 126.057 188.735 123.517 190.061 121.48C191.296 119.556 193.369 118.33 195.65 118.174C195.83 118.162 196.01 118.156 196.192 118.156C201.545 119.093 206.959 119.639 212.392 119.791C211.652 118.044 211.592 116.084 212.223 114.295C213.603 110.729 213.659 106.787 212.382 103.183C211.566 100.893 211.866 98.354 213.192 96.3167C214.427 94.3928 216.5 93.1667 218.781 93.0109C218.961 92.9989 219.141 92.9926 219.323 92.9926C232.072 95.2359 245.116 95.2376 257.866 92.9976H257.882C258.866 93.2003 259.881 93.2003 260.865 92.9976H260.881C273.631 95.2376 286.674 95.2359 299.424 92.9926C299.606 92.9926 299.786 92.9989 299.965 93.0109C302.247 93.1667 304.32 94.3928 305.554 96.3167C306.881 98.354 307.18 100.893 306.364 103.183C305.087 106.787 305.144 110.729 306.524 114.295C307.155 116.084 307.094 118.044 306.355 119.791C311.787 119.639 317.201 119.093 322.554 118.156C322.736 118.156 322.917 118.162 323.096 118.174C325.377 118.33 327.45 119.556 328.685 121.48C330.012 123.517 330.311 126.057 329.495 128.346C328.218 131.95 328.274 135.893 329.655 139.459C330.361 141.459 330.199 143.663 329.208 145.539C333.821 145.309 338.415 144.795 342.964 143.999C343.146 143.999 343.326 144.006 343.505 144.018C345.787 144.173 347.86 145.399 349.095 147.323C350.421 149.361 350.721 151.9 349.905 154.19C348.627 157.794 348.684 161.736 350.064 165.302C350.882 167.608 350.536 170.167 349.136 172.175C349.743 172.633 350.281 173.177 350.731 173.791C351.993 175.598 352.381 177.874 351.788 179.997C350.805 183.822 350.851 187.953 351.932 192.625C352.324 194.259 352.128 195.98 351.378 197.484C351.104 198.02 350.77 198.523 350.383 198.984C353.568 198.704 356.745 198.286 359.914 197.731H359.929C362.478 197.722 364.877 198.936 366.379 200.994C367.64 202.801 368.028 205.078 367.436 207.2C366.452 211.026 366.499 215.157 367.579 219.829C367.971 221.463 367.775 223.183 367.026 224.688Z" fill="white"/>
<path d="M465.979 52.2071H44.7665C43.8414 52.1867 43.108 51.4205 43.1283 50.4957C43.1481 49.5996 43.8701 48.8779 44.7665 48.8582H465.979C466.904 48.8785 467.637 49.6447 467.617 50.5695C467.597 51.4656 466.875 52.1874 465.979 52.2071Z" fill="#E6E6E6"/>
<path d="M260.461 287.637L260.414 287.634C247.64 285.854 234.681 285.854 221.907 287.634H221.886C220.607 287.638 219.346 287.334 218.21 286.747C214.969 284.987 213.502 281.122 214.759 277.655C216.14 274.089 216.196 270.147 214.919 266.543C214.103 264.253 214.403 261.714 215.729 259.677C216.964 257.753 219.037 256.527 221.318 256.371C221.498 256.359 221.678 256.353 221.86 256.353C234.609 258.596 247.652 258.598 260.403 256.358H260.419C262.967 256.349 265.366 257.562 266.868 259.621C268.129 261.428 268.517 263.704 267.925 265.827C266.941 269.652 266.988 273.783 268.068 278.455C268.46 280.089 268.264 281.81 267.515 283.314C266.169 285.972 263.44 287.644 260.461 287.637Z" fill="#710FD8"/>
<path d="M299.745 220.956L289.468 212.455C281.762 216.493 270.035 232.614 270.035 232.614L242.983 252.063C239.734 252.218 237.226 254.976 237.381 258.224C237.536 261.472 240.295 263.979 243.543 263.824C245.652 263.724 247.545 262.503 248.506 260.625L285.262 241.208L299.745 220.956Z" fill="#FFB8B8"/>
<path d="M317.083 188.6C323.014 193.622 323.75 202.499 318.727 208.428C318.164 209.093 317.541 209.704 316.865 210.253L310.33 215.564C310.33 215.564 294.029 239.022 285.544 241.744L263.761 253.12L253.938 243.275L273.68 227.192C273.68 227.192 282.761 218.606 283.67 212.321C284.227 208.472 290.743 197.987 297.275 190.211C302.288 184.299 311.146 183.569 317.06 188.581L317.083 188.6Z" fill="#3F3D56"/>
<path d="M295.964 443.195L286.679 443.194L282.263 407.395L295.966 407.395L295.964 443.195Z" fill="#FFB6B6"/>
<path d="M296.291 452.877L267.74 452.876V452.515C267.741 446.38 272.716 441.407 278.853 441.406L284.069 437.451L293.799 441.407L296.291 441.407L296.291 452.877Z" fill="#2F2E41"/>
<path d="M366.705 394.344L362.308 402.518L328.675 389.455L335.164 377.39L366.705 394.344Z" fill="#FFB6B6"/>
<path d="M375.391 398.641L361.871 423.779L361.553 423.608C356.147 420.702 354.121 413.967 357.027 408.563L357.027 408.562L356.012 402.098L364.105 395.403L365.285 393.209L375.391 398.641Z" fill="#2F2E41"/>
<path d="M278.41 279.252L270.216 344.785L274.313 366.755L348.063 399.054L352.16 385.743C333.308 374.212 313.157 356.76 300.459 355.477C300.459 355.477 299.406 343.847 308.502 336.67C310.338 335.222 309.936 333.263 310.678 331.487C311.189 330.266 313.219 328.994 313.739 327.741C314.413 326.117 313.579 324.504 314.257 322.854C314.638 321.927 316.082 321.868 316.46 320.94C317.106 319.356 316.683 316.904 317.313 315.34C318.658 311.996 319.95 308.727 321.131 305.662C324.805 296.122 327.391 288.564 327.065 286.931C326.04 281.812 278.41 279.252 278.41 279.252Z" fill="#2F2E41"/>
<path d="M276.999 344.595L272.712 372.27L283.532 428.749H297.872C303.024 409.772 303.29 384.83 298.384 363.728L276.999 344.595Z" fill="#2F2E41"/>
<path d="M286.212 199.183L292.823 187.668L299.921 181.976L313.236 179.928L316.936 182.772C330.25 203.113 335.215 227.8 330.8 251.704L329.76 257.331L329.101 260.903L329.386 265.172L327.164 271.388L327.47 275.939L327.633 278.37L327.797 280.81L328.026 284.215C328.435 286.158 326.374 285.902 326.665 287.615C327.177 290.624 329.474 295.082 325.985 295.096L289.928 287.615C280.768 287.653 272.24 276.734 281.084 267.893L286.212 199.183Z" fill="#3F3D56"/>
<path d="M303.089 176.72C312.759 176.72 320.598 168.884 320.598 159.217C320.598 149.55 312.759 141.714 303.089 141.714C293.419 141.714 285.58 149.55 285.58 159.217C285.58 168.884 293.419 176.72 303.089 176.72Z" fill="#FFB8B8"/>
<path d="M303.386 176.223C305.948 176.263 308.508 176.084 311.04 175.688C313.549 175.178 319.162 171.066 320.727 168.591C321.889 166.753 322.633 163.882 323.052 161.798C324.193 156.219 322.915 150.418 319.534 145.836C318.892 144.888 318.005 144.131 316.968 143.646C316.876 143.61 316.781 143.578 316.685 143.551C315.174 143.153 313.816 142.313 312.785 141.138C312.586 140.901 312.369 140.678 312.137 140.471C310.972 139.489 309.592 138.796 308.108 138.449C305.713 137.808 302.246 138.444 297.805 140.341C295.574 141.294 293.134 140.949 291.257 140.542C291.043 140.501 290.823 140.576 290.679 140.74C289.88 141.49 288.827 141.909 287.732 141.915C287.061 141.944 286.357 142.873 285.506 144.084C285.313 144.359 285.088 144.68 284.925 144.875L284.903 144.5L284.524 144.918C282.571 147.07 282.733 150.396 284.885 152.348C285.464 152.872 286.152 153.262 286.899 153.487C287.574 153.667 288.266 153.777 288.963 153.816C289.385 153.854 289.822 153.893 290.241 153.966C292.975 154.525 295.213 156.48 296.136 159.112C296.522 160.19 297.71 160.751 298.789 160.364C298.958 160.303 299.119 160.221 299.267 160.119C300.152 159.43 301.319 159.217 302.39 159.55C302.846 159.804 303.201 160.206 303.396 160.691C303.632 161.23 304.024 161.687 304.521 162.003C306.221 162.879 306.339 166.762 305.728 169.998C305.139 173.118 303.976 175.374 302.898 175.486C302.069 175.572 301.974 175.631 301.914 175.777L301.86 175.909L301.953 176.031C302.412 176.197 302.9 176.263 303.386 176.223Z" fill="#2F2E41"/>
<path d="M267.945 165.901L267.898 165.897C255.124 164.118 242.165 164.118 229.391 165.897H229.371C228.092 165.902 226.831 165.598 225.695 165.011C222.453 163.251 220.986 159.386 222.244 155.919C223.624 152.353 223.681 148.411 222.403 144.807C221.587 142.517 221.887 139.978 223.213 137.941C224.448 136.017 226.521 134.791 228.803 134.635C228.982 134.623 229.162 134.617 229.344 134.617C242.094 136.86 255.137 136.862 267.887 134.622H267.903C270.452 134.613 272.85 135.826 274.352 137.885C275.614 139.692 276.001 141.968 275.409 144.091C274.426 147.916 274.472 152.047 275.553 156.719C275.944 158.353 275.748 160.074 274.999 161.578C273.654 164.236 270.925 165.908 267.945 165.901Z" fill="#25D838"/>
<path d="M284.318 207.125L291.563 195.929C286.651 188.75 269.265 178.991 269.265 178.991L246.78 154.407C246.247 151.199 243.214 149.031 240.005 149.564C236.797 150.098 234.628 153.13 235.162 156.337C235.508 158.419 236.942 160.156 238.92 160.891L262.506 195.113L284.318 207.125Z" fill="#FFB8B8"/>
<path d="M318.49 220.557C314.194 227.033 305.461 228.801 298.983 224.507C298.257 224.026 297.578 223.478 296.953 222.871L290.913 217.004C290.913 217.004 265.595 203.788 261.9 195.682L245.311 172.16L256.434 162.129L275.767 179.699C275.767 179.699 284.669 189.989 291.019 190.157C294.908 190.26 306.086 195.504 314.575 201.08C321.034 205.366 322.794 214.076 318.507 220.532L318.49 220.557Z" fill="#3F3D56"/>
<path d="M149.832 452.775L149.785 452.772C137.011 450.993 124.052 450.993 111.278 452.772H111.257C109.978 452.777 108.717 452.473 107.581 451.885C104.34 450.125 102.873 446.26 104.131 442.794C105.511 439.228 105.567 435.286 104.29 431.682C103.474 429.392 103.774 426.853 105.1 424.815C106.335 422.891 108.408 421.665 110.689 421.509C110.869 421.498 111.049 421.491 111.231 421.491C123.98 423.735 137.024 423.736 149.774 421.496H149.79C152.338 421.487 154.737 422.701 156.239 424.759C157.5 426.566 157.888 428.843 157.296 430.965C156.312 434.791 156.359 438.921 157.439 443.593C157.831 445.228 157.635 446.948 156.886 448.453C155.54 451.11 152.811 452.782 149.832 452.775Z" fill="#710FD8"/>
<path d="M160.717 424.212L160.67 424.208C147.896 422.429 134.937 422.429 122.163 424.208H122.142C120.863 424.213 119.602 423.909 118.466 423.322C115.224 421.562 113.757 417.697 115.015 414.23C116.396 410.664 116.452 406.722 115.175 403.118C114.359 400.828 114.658 398.289 115.985 396.252C117.22 394.328 119.293 393.102 121.574 392.946C121.753 392.934 121.933 392.927 122.115 392.927C134.865 395.171 147.908 395.172 160.658 392.932H160.674C163.223 392.924 165.621 394.137 167.123 396.195C168.385 398.003 168.773 400.279 168.18 402.402C167.197 406.227 167.244 410.358 168.324 415.03C168.716 416.664 168.52 418.384 167.771 419.889C166.425 422.546 163.696 424.219 160.717 424.212Z" fill="#25D838"/>
<path d="M65.4641 431.998L65.4933 431.961C74.125 422.381 81.3863 411.651 87.0696 400.077L87.0812 400.06C87.7937 398.999 88.7524 398.125 89.8755 397.513C93.1501 395.815 97.1745 396.766 99.3419 399.75C101.523 402.891 104.758 405.147 108.46 406.109C110.814 406.716 112.75 408.387 113.695 410.627C114.597 412.727 114.451 415.131 113.302 417.107C113.212 417.262 113.116 417.415 113.014 417.565C104.011 426.865 96.7015 437.664 91.4133 449.476L91.4044 449.489C89.9837 451.605 87.6344 452.911 85.0873 453.001C82.883 453.033 80.7797 452.078 79.3529 450.399C76.7342 447.441 73.2857 445.165 68.8094 443.442C67.2356 442.85 65.9201 441.724 65.0934 440.261C63.6454 437.658 63.7889 434.461 65.4641 431.998Z" fill="#710FD8"/>
<path d="M510.194 453.813L0.805821 454.022C0.358451 454.019 -0.00232897 453.655 1.13216e-05 453.208C0.0023244 452.764 0.36175 452.404 0.805821 452.402L510.194 452.193C510.642 452.195 511.002 452.56 511 453.007C510.998 453.451 510.638 453.81 510.194 453.813Z" fill="#CACACA"/>
<path d="M109.022 36.6624C112.199 36.6624 114.775 34.0301 114.775 30.783C114.775 27.5359 112.199 24.9036 109.022 24.9036C105.844 24.9036 103.269 27.5359 103.269 30.783C103.269 34.0301 105.844 36.6624 109.022 36.6624Z" fill="#710FD8"/>
<path d="M128.897 36.6624C132.074 36.6624 134.65 34.0301 134.65 30.783C134.65 27.5359 132.074 24.9036 128.897 24.9036C125.719 24.9036 123.144 27.5359 123.144 30.783C123.144 34.0301 125.719 36.6624 128.897 36.6624Z" fill="#710FD8"/>
<path d="M148.771 36.6624C151.948 36.6624 154.524 34.0301 154.524 30.783C154.524 27.5359 151.948 24.9036 148.771 24.9036C145.593 24.9036 143.018 27.5359 143.018 30.783C143.018 34.0301 145.593 36.6624 148.771 36.6624Z" fill="#710FD8"/>
<path d="M171.433 35.4299C171.257 35.4299 171.08 35.3615 170.947 35.2254L167.065 31.2584C166.806 30.9941 166.806 30.5717 167.065 30.3073L170.947 26.3407C171.211 26.0724 171.642 26.0681 171.909 26.3301C172.178 26.5927 172.183 27.0234 171.92 27.2918L168.503 30.7829L171.92 34.2743C172.182 34.5426 172.178 34.9733 171.909 35.236C171.777 35.3655 171.605 35.4299 171.433 35.4299Z" fill="#710FD8"/>
<path d="M177.957 35.4299C177.785 35.4299 177.613 35.3655 177.481 35.236C177.212 34.9733 177.208 34.543 177.47 34.2743L180.887 30.7829L177.47 27.2918C177.208 27.0235 177.212 26.5928 177.481 26.3301C177.749 26.0671 178.18 26.0721 178.443 26.3407L182.325 30.3073C182.583 30.5717 182.583 30.9941 182.325 31.2584L178.443 35.2254C178.31 35.3615 178.133 35.4299 177.957 35.4299Z" fill="#710FD8"/>
<path d="M381.038 25.5842H373.82C372.997 25.5842 372.33 26.2507 372.33 27.0736V34.2962C372.33 35.1191 372.997 35.7856 373.82 35.7856H381.038C381.861 35.7856 382.535 35.1191 382.535 34.2962V27.0736C382.535 26.2507 381.861 25.5842 381.038 25.5842Z" fill="#710FD8"/>
<path d="M363.35 25.5842H356.132C355.308 25.5842 354.642 26.2507 354.642 27.0736V34.2962C354.642 35.1191 355.308 35.7856 356.132 35.7856H363.35C364.173 35.7856 364.846 35.1191 364.846 34.2962V27.0736C364.846 26.2507 364.173 25.5842 363.35 25.5842Z" fill="#710FD8"/>
<path d="M397.706 25.9243H390.488C389.665 25.9243 388.998 26.5908 388.998 27.4137V34.6363C388.998 35.4592 389.665 36.1257 390.488 36.1257H397.706C398.529 36.1257 399.203 35.4592 399.203 34.6363V27.4137C399.203 26.5908 398.529 25.9243 397.706 25.9243Z" fill="#710FD8"/>
<path d="M288.909 28.6719H231.211C230.204 28.6719 229.395 29.488 229.395 30.4877C229.395 31.4875 230.204 32.3036 231.211 32.3036H288.909C289.909 32.3036 290.725 31.4875 290.725 30.4877C290.725 29.488 289.909 28.6719 288.909 28.6719Z" fill="#710FD8"/>
</g>
<defs>
<clipPath id="clip0_109_520">
<rect width="511" height="455" fill="white"/>
</clipPath>
</defs>
</svg>
