<svg class="team-top-bg" width="3086" height="216" viewBox="0 0 3086 216" fill="none" xmlns="http://www.w3.org/2000/svg">
<path fill-rule="evenodd" clip-rule="evenodd" d="M0 216V28.5538C30.9179 45.6176 176.423 76.1206 522.547 65.903C768.251 58.6498 900.822 36.1667 999.19 19.4842C1040.94 12.4031 1076.53 6.36706 1112 2.98437C1165.5 -2.11851 1276.31 -1.08177 1358 9.25013C1389.02 13.1738 1424.22 19.3005 1462.44 25.9528C1550.02 41.1968 1653.45 59.2004 1758.83 59.7768C1834.12 60.1886 1911.34 46.1376 1989.52 31.9107C2068.51 17.5373 2148.49 2.98438 2228.46 2.98438C2310.26 2.98438 2411.24 21.2273 2504.77 38.1267C2593.21 54.104 2674.99 68.8802 2727.64 65.903C2822.07 60.5635 3006.27 37.615 3086 20.4077V216H0Z" fill="#303434"/>
</svg>
