<svg class="tem-list-right" width="618" height="781" viewBox="0 0 618 781" fill="none" xmlns="http://www.w3.org/2000/svg">
<mask id="path-1-inside-1_69_293" fill="white">
<path fill-rule="evenodd" clip-rule="evenodd" d="M566.651 528.415L566.774 528.504C466.499 667.838 272.501 699.674 133.46 599.611L0.812873 504.149L182.374 251.864L182.378 251.868C282.86 113.385 476.26 81.9425 614.841 181.675L747.488 277.136L566.651 528.415Z"/>
</mask>
<path d="M566.651 528.415L565.839 527.831L565.255 528.643L566.067 529.227L566.651 528.415ZM566.774 528.504L567.585 529.088L568.169 528.276L567.358 527.692L566.774 528.504ZM0.812873 504.149L0.00120971 503.565L-0.582916 504.377L0.228747 504.961L0.812873 504.149ZM182.374 251.864L182.958 251.053L182.146 250.469L181.562 251.28L182.374 251.864ZM182.378 251.868L181.794 252.68L182.603 253.261L183.188 252.455L182.378 251.868ZM614.841 181.675L615.425 180.863L614.841 181.675ZM747.488 277.136L748.3 277.72L748.884 276.908L748.072 276.324L747.488 277.136ZM566.067 529.227L566.189 529.315L567.358 527.692L567.235 527.604L566.067 529.227ZM565.962 527.919C466.009 666.808 272.635 698.538 134.044 598.799L132.876 600.422C272.366 700.809 466.989 668.869 567.585 529.088L565.962 527.919ZM134.044 598.799L1.397 503.338L0.228747 504.961L132.876 600.422L134.044 598.799ZM1.62454 504.734L183.185 252.449L181.562 251.28L0.00120971 503.565L1.62454 504.734ZM181.789 252.676L181.794 252.68L182.963 251.056L182.958 251.053L181.789 252.676ZM183.188 252.455C283.348 114.416 476.125 83.0774 614.257 182.486L615.425 180.863C476.395 80.8077 282.373 112.354 181.569 251.281L183.188 252.455ZM614.257 182.486L746.904 277.948L748.072 276.324L615.425 180.863L614.257 182.486ZM746.677 276.552L565.839 527.831L567.463 529L748.3 277.72L746.677 276.552Z" fill="#6A6B6B" mask="url(#path-1-inside-1_69_293)"/>
</svg>
