<svg class="tem-list-left" width="520" height="781" viewBox="0 0 520 781" fill="none" xmlns="http://www.w3.org/2000/svg">
<mask id="path-1-inside-1_69_300" fill="white">
<path fill-rule="evenodd" clip-rule="evenodd" d="M-45.8515 250.038L-45.9728 249.949C56.0706 111.904 250.459 82.5461 388.213 184.374L519.631 281.52L334.867 531.468L334.862 531.465C232.622 668.655 38.8374 697.628 -98.4606 596.136L-229.879 498.991L-45.8515 250.038Z"/>
</mask>
<path d="M-45.8515 250.038L-45.0474 250.633L-44.453 249.829L-45.2571 249.234L-45.8515 250.038ZM-45.9728 249.949L-46.777 249.354L-47.3714 250.158L-46.5673 250.753L-45.9728 249.949ZM519.631 281.52L520.435 282.114L521.03 281.31L520.226 280.716L519.631 281.52ZM334.867 531.468L334.273 532.273L335.077 532.867L335.671 532.063L334.867 531.468ZM334.862 531.465L335.457 530.661L334.656 530.069L334.061 530.867L334.862 531.465ZM-98.4606 596.136L-97.8662 595.332L-98.4606 596.136ZM-229.879 498.991L-230.683 498.396L-231.278 499.2L-230.473 499.795L-229.879 498.991ZM-45.2571 249.234L-45.3784 249.144L-46.5673 250.753L-46.446 250.842L-45.2571 249.234ZM-45.1687 250.543C56.5477 112.941 250.311 83.6797 387.618 185.178L388.807 183.57C250.608 81.4125 55.5936 110.867 -46.777 249.354L-45.1687 250.543ZM387.618 185.178L519.037 282.324L520.226 280.716L388.807 183.57L387.618 185.178ZM518.827 280.925L334.063 530.874L335.671 532.063L520.435 282.114L518.827 280.925ZM335.462 530.664L335.457 530.661L334.268 532.269L334.273 532.273L335.462 530.664ZM334.061 530.867C232.148 667.618 38.9869 696.495 -97.8662 595.332L-99.055 596.94C38.6879 698.761 233.097 669.692 335.664 532.062L334.061 530.867ZM-97.8662 595.332L-229.285 498.187L-230.473 499.795L-99.055 596.94L-97.8662 595.332ZM-229.075 499.585L-45.0474 250.633L-46.6557 249.444L-230.683 498.396L-229.075 499.585Z" fill="#6A6B6B" mask="url(#path-1-inside-1_69_300)"/>
</svg>
